<svg width="90" height="90" viewBox="0 0 90 90" fill="none" xmlns="http://www.w3.org/2000/svg">
<g clip-path="url(#clip0_8009_2027)">
<path d="M19.609 72.6982C19.1549 72.2685 18.6964 71.836 18.2379 71.3991C25.0679 64.6989 32.0233 56.4674 32.0233 45.3017C32.0233 34.1361 25.0679 25.9046 18.2379 19.2029C18.6964 18.766 19.1549 18.3334 19.609 17.9038C25.4975 12.3411 30.5815 7.53689 30.5815 2.04634V0.604492H27.6978V2.04634C27.6978 2.99651 27.4527 3.95678 27.0288 4.93003H5.29729C4.87338 3.95678 4.62827 2.99651 4.62827 2.04634V0.604492H1.74458V2.04634C1.74458 7.53689 6.82853 12.3411 12.717 17.9052C13.1712 18.3349 13.6297 18.7674 14.0882 19.2043C7.2582 25.9046 0.302734 34.1361 0.302734 45.3017C0.302734 56.4674 7.2582 64.6989 14.0882 71.4006C13.6297 71.8374 13.1712 72.27 12.717 72.6997C6.82853 78.2623 1.74458 83.0665 1.74458 88.5571V89.9989H4.62827V88.5571C4.62827 87.6069 4.87338 86.6466 5.29729 85.6734H27.0302C27.4527 86.6466 27.6978 87.6069 27.6978 88.5571V89.9989H30.5815V88.5571C30.5815 83.0665 25.4975 78.2623 19.609 72.6982ZM7.02173 7.81372H25.3043C24.6007 8.75525 23.7659 9.71551 22.8417 10.6974H9.48441C8.56018 9.71551 7.72391 8.75525 7.02173 7.81372ZM12.3566 13.5811H19.9681C19.2111 14.3107 18.4296 15.0503 17.628 15.8088C17.1464 16.2644 16.6561 16.7272 16.163 17.1958C15.6685 16.7272 15.1797 16.2644 14.6981 15.8088C13.8965 15.0503 13.1135 14.3107 12.3566 13.5811ZM16.163 21.2041C17.9077 22.9113 19.6321 24.6833 21.2254 26.5577H11.1007C12.694 24.6833 14.4184 22.9113 16.163 21.2041ZM5.42129 35.2088H19.0467V32.3251H6.94099C7.55954 31.2798 8.23144 30.2661 8.95381 29.2799V29.4414H23.3723V29.2799C24.0946 30.2647 24.7665 31.2798 25.3851 32.3251H21.9304V35.2088H26.9062C27.3287 36.1417 27.6848 37.1077 27.9977 38.0925H4.32981C4.64269 37.1077 4.99738 36.1417 5.42129 35.2088ZM3.58582 40.9762H28.7417C28.9147 41.9105 29.0142 42.8765 29.0748 43.8599H3.25275C3.31187 42.8765 3.41135 41.9105 3.58582 40.9762ZM4.32837 52.5109H8.95381V49.6272H3.58438C3.41135 48.6929 3.31187 47.7269 3.25131 46.7435H29.0733C29.0142 47.7269 28.9147 48.6929 28.7403 49.6272H11.8375V52.5109H27.9963C27.6834 53.4957 27.3287 54.4618 26.9048 55.3946H5.41984C4.99738 54.4618 4.64125 53.4957 4.32837 52.5109ZM8.95381 61.3235C8.23144 60.3373 7.55954 59.3237 6.94099 58.2783H25.3851C24.768 59.3237 24.0946 60.3373 23.3723 61.3235V61.162H8.95381V61.3235ZM11.1007 64.0457H21.2254C19.6321 65.9201 17.9077 67.6921 16.163 69.3993C14.4184 67.6921 12.694 65.9201 11.1007 64.0457ZM14.6981 74.7947C15.1797 74.339 15.6699 73.8762 16.163 73.4076C16.6576 73.8776 17.1464 74.3405 17.628 74.7947C18.4296 75.5531 19.2125 76.2927 19.9681 77.0223H12.3566C13.1135 76.2927 13.8965 75.5531 14.6981 74.7947ZM7.02173 82.7897C7.72536 81.8482 8.56018 80.8879 9.48441 79.906H22.8431C23.7673 80.8879 24.6022 81.8482 25.3058 82.7897H7.02173Z" fill="#9087D3"/>
<path d="M5.40723 35.2351L6.93919 32.2613L19.1949 32.2613L19.1949 35.3252L5.40723 35.2351Z" fill="#B2EDE7"/>
<path d="M27.9351 52.5368L28.7461 49.563L11.8044 49.563L11.8044 52.627L27.9351 52.5368Z" fill="#B2EDE7"/>
<path d="M26.9443 35.2351L25.4124 32.2613L21.8979 32.2613L21.8979 35.3252L26.9443 35.2351Z" fill="#B2EDE7"/>
<path d="M3.60449 49.6536L4.41553 52.6274L9.01141 52.6274L9.01141 49.5635L3.60449 49.6536Z" fill="#B2EDE7"/>
<rect x="46.7754" y="32.4238" width="21.849" height="9.70342" transform="rotate(-45 46.7754 32.4238)" fill="#00C9B4"/>
<path d="M38.2089 87.4071C38.2089 84.9187 40.2262 82.9014 42.7147 82.9014H79.4817C81.9702 82.9014 83.9875 84.9187 83.9875 87.4071V88.3179H38.2089V87.4071Z" fill="#00C9B4"/>
<circle cx="73.8046" cy="55.4209" r="3.87496" fill="#00C9B4"/>
<circle cx="69.659" cy="73.0839" r="3.87496" fill="#00C9B4"/>
<path d="M82.489 78.4652H80.1633C83.5632 72.31 85.3727 65.3545 85.3727 58.2794C85.3727 46.6394 80.4978 35.5357 71.9808 27.6315L75.8955 23.7169L73.0103 20.8318L78.1822 15.6628L79.6298 17.1089L85.9653 10.7172L75.2769 0L68.9414 6.42919L70.3717 7.8595L65.1955 13.0184L62.3219 10.1448L42.1361 30.3307L39.2524 27.447L32.8881 33.8113L52.229 53.1522L58.5933 46.7879L55.7096 43.9042L63.7984 35.8154C67.9581 39.5715 71.0235 44.4348 72.5965 49.7725C70.0127 50.3406 68.0706 52.6418 68.0706 55.3957C68.0706 58.5288 70.5851 61.0737 73.6995 61.1487C73.5856 62.3541 73.3953 63.5508 73.1386 64.7317C72.0111 64.2962 70.7913 64.0468 69.5124 64.0468H47.8847C43.9095 64.0468 40.6755 67.2808 40.6755 71.256V72.6979H59.5348C59.4671 73.1708 59.4195 73.6495 59.4195 74.1397V78.4652H39.2336C35.2585 78.4652 32.0244 81.6993 32.0244 85.6745V90H89.6982V85.6745C89.6982 81.6993 86.4642 78.4652 82.489 78.4652ZM75.2884 4.09484L81.8964 10.723L79.6183 13.0227L73.0046 6.41333L75.2884 4.09484ZM72.412 9.89683L76.142 13.624L70.9715 18.7916L67.2357 15.0558L72.412 9.89683ZM52.229 49.0732L36.9656 33.8098L39.2524 31.5231L54.5158 46.7865L52.229 49.0732ZM53.6708 41.864L44.1748 32.368L62.3219 14.2209L71.8179 23.7169L53.6708 41.864ZM65.84 33.7738L69.9421 29.6717C77.9198 37.0352 82.489 47.405 82.489 58.2794C82.489 63.3922 81.4826 68.4386 79.5534 73.1218C79.2723 70.3275 77.8419 67.872 75.7498 66.2211C76.2184 64.3179 76.5183 62.367 76.6438 60.4032C78.4014 59.4141 79.6053 57.5527 79.6053 55.3957C79.6053 52.8465 77.9328 50.7039 75.6359 49.9441C74.0254 43.7615 70.5909 38.1022 65.84 33.7738ZM70.9542 55.3957C70.9542 53.8054 72.2476 52.512 73.8379 52.512C75.4283 52.512 76.7216 53.8054 76.7216 55.3957C76.7216 56.9861 75.4283 58.2794 73.8379 58.2794C72.2476 58.2794 70.9542 56.9861 70.9542 55.3957ZM43.8057 69.8142C44.4012 68.1359 46.0045 66.9305 47.8847 66.9305H62.4618C61.6154 67.7581 60.9219 68.7342 60.4071 69.8142H43.8057ZM86.8145 87.1163H34.9081V85.6745C34.9081 83.2896 36.8488 81.3489 39.2336 81.3489H65.1869V78.4652H62.3032V74.1397C62.3032 70.1645 65.5372 66.9305 69.5124 66.9305C73.4876 66.9305 76.7216 70.1645 76.7216 74.1397V78.4652H68.0706V81.3489H82.489C84.8738 81.3489 86.8145 83.2896 86.8145 85.6745V87.1163Z" fill="#25187F"/>
<path d="M5.22656 4.68555H27.1246L25.2322 7.9297H7.02887L5.22656 4.68555Z" fill="#B2EDE7"/>
<path d="M9.28125 80.2021L23.159 80.2021L19.9149 76.958H12.4353L9.28125 80.2021Z" fill="#B2EDE7"/>
</g>
<defs>
<clipPath id="clip0_8009_2027">
<rect width="90" height="90" fill="white"/>
</clipPath>
</defs>
</svg>
