<svg width="90" height="90" viewBox="0 0 90 90" fill="none" xmlns="http://www.w3.org/2000/svg">
<path fill-rule="evenodd" clip-rule="evenodd" d="M55.5719 28.6185L53.4291 27.4072L48.8955 35.4269C42.798 33.3627 36.2046 33.3645 30.108 35.4318L25.6115 27.7431L23.4883 28.9838L28.3312 37.2677V46.4039H30.7918L36 49.5C41.5 50 35.8469 48.0559 41.5 50L48.2262 46.3932H50.6866V37.2605L55.5719 28.6185Z" fill="#B2EDE7"/>
<path fill-rule="evenodd" clip-rule="evenodd" d="M46 58.5C41.5 62.5 43.5966 60.4326 37.5 62.5L34 59.5L31.5 58L34 68.5L39.5 82.5C39.5 82.5 40.5 81.5 41.5 78.0928L44 71L46 64.5V58.5Z" fill="#B2EDE7"/>
<path fill-rule="evenodd" clip-rule="evenodd" d="M55.5719 28.6185L53.4291 27.4072L48.8955 35.4269C42.798 33.3627 36.2046 33.3645 30.108 35.4318L25.6115 27.7431L23.4883 28.9838L28.3312 37.2677V46.4039H30.7918V37.7957C36.4448 35.8516 42.573 35.8516 48.2262 37.7957V46.3932H50.6866V37.2605L55.5719 28.6184V28.6185Z" fill="#9087D3"/>
<path fill-rule="evenodd" clip-rule="evenodd" d="M61.0897 52.4328C59.6941 52.1148 58.3758 51.8123 57.2277 51.5187L50.9647 49.979V46.6767C53.7183 43.9274 55.4912 40.1966 55.7078 36.0607H56.5353C59.3965 36.0607 61.7241 33.7333 61.7241 30.8734C61.7241 29.4378 61.1373 28.1366 60.1914 27.1966V16.3433C60.2737 14.2919 59.328 12.3513 57.6623 11.1488C56.4227 10.2558 54.9248 9.87087 53.4488 10.0275C53.0828 7.92848 51.9364 6.22534 50.0793 5.04585C45.0879 1.8802 35.8638 3.17571 31.3935 5.28139C26.6074 7.53491 23.3215 10.3912 21.349 14.0105C19.7035 17.0287 18.9233 20.5654 18.8217 25.4769V27.2013C17.8786 28.141 17.2939 29.4404 17.2939 30.8734C17.2939 33.7332 19.6215 36.0607 22.4826 36.0607H23.3078C23.5002 40.0333 25.148 43.7575 28.0001 46.6236C28.0176 46.6413 28.0358 46.6584 28.0535 46.6759V49.9792L21.7793 51.5224C20.6422 51.8123 19.3239 52.1148 17.9303 52.4328C13.6744 53.4049 9.2762 54.4103 7.04536 55.7183C2.92681 58.1318 1.52794 60.7193 1.06194 66.7888C1.06019 66.7978 1.06019 66.8068 1.06019 66.8154C0.733234 72.7324 0.634796 78.8915 0.756085 85.6451C0.768741 86.3166 1.31525 86.8544 1.98726 86.8544H60.515V84.3937H48.1093L55.4001 69.4452C55.667 68.8949 55.4917 68.2306 54.985 67.8876L52.478 66.1863L58.114 61.5667C58.6308 61.1413 58.7131 60.3818 58.3004 59.8546L52.9074 52.9909L56.6287 53.9062C57.7971 54.205 59.1299 54.5091 60.5414 54.8325C63.1307 55.4233 65.8064 56.0349 67.9525 56.7152L68.6955 54.3702C66.4527 53.6583 63.7262 53.0361 61.0897 52.4331V52.4328ZM29.3736 65.3283L23.3971 60.4273L28.7798 53.5791L37.8642 84.3937H33.6462L26.299 69.3238L29.2857 67.299C29.606 67.0808 29.8059 66.7241 29.8238 66.3355C29.8416 65.949 29.6747 65.5742 29.374 65.3283H29.3736ZM48.5042 50.6773C44.5108 59.5699 41.3573 61.4576 39.4004 61.4576H39.3758C36.6007 61.4349 33.5396 57.712 30.515 50.6896V48.6967C33.1624 50.4709 36.265 51.424 39.5097 51.424C42.8346 51.424 45.9285 50.4178 48.5044 48.6948V50.6773H48.5042ZM33.4064 60.5743C35.3275 62.797 37.3012 63.9023 39.3562 63.9185H39.4019C41.5554 63.9185 43.6416 62.7214 45.6946 60.2909L39.5086 81.2751L33.4062 60.5743H33.4064ZM59.2629 30.8734C59.2629 32.3763 58.0404 33.5996 56.5355 33.5996H55.7306V28.1468H56.5355C58.0402 28.1468 59.2629 29.3705 59.2629 30.8734ZM23.3199 28.358L23.2953 33.5996H22.4828C20.9788 33.5996 19.7547 32.3763 19.7547 30.8734C19.7547 29.3705 20.979 28.1468 22.4828 28.1468H23.3229C23.3224 28.2179 23.3199 28.2862 23.3199 28.358ZM22.4828 25.6861C22.0696 25.6861 21.6679 25.736 21.2822 25.8278V25.5136C21.4492 17.5632 23.3776 11.7762 32.4426 7.50678C36.4984 5.59587 44.6687 4.52712 48.7602 7.12358C50.3463 8.12905 51.1157 9.57731 51.1157 11.5496C51.1157 11.9541 51.3148 12.3336 51.6486 12.5623C51.9833 12.7924 52.4078 12.8432 52.7865 12.6976C53.938 12.256 55.2224 12.4232 56.2223 13.1441C57.2228 13.8662 57.7871 15.0318 57.7321 16.2624C57.7312 16.2816 57.7312 16.299 57.7312 16.3183V25.8265C57.3471 25.7357 56.9472 25.6859 56.5357 25.6859H55.6424C55.3247 21.7224 54.1525 18.9535 52.1426 17.4363C50.3143 16.0549 47.8978 15.7771 44.9586 16.6119C44.9424 16.6172 44.9273 16.6226 44.9129 16.6261C41.2195 17.8318 37.1418 18.3504 32.7943 18.1607C29.8205 17.8742 27.6056 18.4311 26.0222 19.8674C24.6347 21.1242 23.7931 23.0425 23.4714 25.6857H22.4832L22.4828 25.6861ZM25.749 35.208L25.7812 28.3629C25.7812 25.0267 26.3998 22.8453 27.674 21.6902C28.5179 20.9257 29.7269 20.5494 31.3494 20.5494C31.7375 20.5494 32.151 20.5705 32.5864 20.6146C32.6092 20.6162 32.6305 20.6183 32.6534 20.6183C37.3031 20.8222 41.675 20.2685 45.6522 18.9748C47.7992 18.3681 49.4844 18.5123 50.6604 19.4001C52.3676 20.6902 53.2691 23.6679 53.2691 28.0134V35.2027C53.2691 42.7894 47.0976 48.9629 39.5093 48.9629C35.828 48.9629 32.36 47.5162 29.7445 44.8882C27.1502 42.2812 25.7309 38.8431 25.7488 35.2078L25.749 35.208ZM3.51585 66.965C3.95056 61.3414 5.14605 59.6839 8.29024 57.8398C10.1941 56.7238 14.5939 55.7183 18.4769 54.8324C19.8885 54.5091 21.223 54.2048 22.3795 53.9097L26.1108 52.9911L20.718 59.8544C20.3054 60.3816 20.3875 61.1412 20.9043 61.5666L26.5404 66.1861L24.035 67.8875C23.5275 68.2304 23.3512 68.8947 23.6191 69.4451L30.9091 84.3935H3.19646C3.11015 78.1759 3.21421 72.4615 3.51585 66.965ZM49.6447 65.3283C49.344 65.5742 49.177 65.9488 49.1949 66.3355C49.2127 66.724 49.4127 67.0808 49.7345 67.299L52.7195 69.3238L45.3724 84.3937H41.1536L50.2387 53.5791L55.6215 60.4273L49.6447 65.3283Z" fill="#9087D3"/>
<path fill-rule="evenodd" clip-rule="evenodd" d="M48.937 31.7258C48.3887 31.7258 47.8881 31.3547 47.7457 30.7975C47.584 30.1597 47.0102 29.7148 46.3511 29.7148C45.6919 29.7148 45.1192 30.1597 44.9555 30.7975C44.7885 31.4568 44.1185 31.856 43.4609 31.6871C42.8026 31.5201 42.4027 30.8504 42.5721 30.1912C43.011 28.4615 44.565 27.2539 46.3509 27.2539C48.1368 27.2539 49.6909 28.4617 50.1305 30.1912C50.2974 30.8504 49.9001 31.5201 49.2409 31.6871C49.1384 31.7137 49.0367 31.7258 48.9368 31.7258H48.937Z" fill="#9087D3"/>
<path fill-rule="evenodd" clip-rule="evenodd" d="M35.2558 31.7258C34.7051 31.7258 34.2043 31.3547 34.0636 30.7975C33.9001 30.1597 33.3273 29.7148 32.6683 29.7148C32.0093 29.7148 31.4355 30.1597 31.2745 30.7975C31.1068 31.4568 30.4374 31.856 29.7783 31.6871C29.1191 31.5201 28.7218 30.8504 28.8886 30.1912C29.3283 28.4615 30.8822 27.2539 32.6683 27.2539C34.4544 27.2539 36.0081 28.4617 36.4479 30.1912C36.6165 30.8504 36.2175 31.5201 35.5583 31.6871C35.4576 31.7137 35.3558 31.7258 35.2558 31.7258Z" fill="#9087D3"/>
<path d="M60 74.5L57.5 80L57 82L58.5 84.5L64.5 85L77.5 85.5L86 85L88 82.5L87 80L84.5 75L82.5 73H77.5L71.5 70.5L65 69.5L63 70.5L60 74.5Z" fill="#02C9AF"/>
<path fill-rule="evenodd" clip-rule="evenodd" d="M88.476 78.6332L84.382 72.0365L84.3838 72.0346C84.378 72.0254 84.3708 72.0177 84.3648 72.0086L78.2182 62.1045C77.5996 61.1061 77.3235 60.1393 77.3235 58.9651V52.2711C78.2845 52.1207 79.0207 51.2882 79.0207 50.2852V48.2566C79.0207 47.1457 78.1217 46.2422 77.0127 46.2422H67.4062C66.2946 46.2422 65.3914 47.1457 65.3914 48.2566V50.2852C65.3914 51.2876 66.1301 52.1196 67.0928 52.2708V58.9651C67.0928 60.1393 66.8175 61.1061 66.1981 62.1045L61.9327 68.9795C61.932 68.9807 61.931 68.9818 61.9303 68.9828C61.9296 68.9839 55.9433 78.6332 55.9433 78.6332C54.8969 80.3172 54.8479 82.3563 55.8111 84.0879C56.7762 85.8192 58.5344 86.8545 60.5152 86.8545H83.9009C85.8835 86.8545 87.6459 85.8192 88.6032 84.0879C89.5691 82.3563 89.5182 80.3172 88.476 78.6332ZM67.8525 48.7029H76.5643V49.8369H67.8525V48.7029ZM68.2897 63.4018C69.1532 62.0115 69.5539 60.6014 69.5539 58.9649V52.2975H74.8622V58.9649C74.8622 60.6014 75.2646 62.0115 76.128 63.4018L81.2418 71.6436C78.2553 71.7391 75.8075 70.9296 73.2431 70.076C70.7992 69.2637 68.2869 68.4318 65.2285 68.3354L68.2897 63.4018ZM86.4509 82.8924C85.9173 83.8592 85.0106 84.3938 83.9007 84.3938H60.5151C59.4076 84.3938 58.5003 83.8592 57.9622 82.8924C57.4232 81.924 57.4487 80.8729 58.0334 79.9307L63.6913 70.8127C67.0677 70.619 69.6946 71.4914 72.4661 72.4127C75.4985 73.4197 78.631 74.4602 82.7063 74.0086L82.7079 74.0068L86.3834 79.9308C86.9681 80.873 86.9932 81.924 86.4509 82.8924Z" fill="#25187F"/>
<circle cx="72.5" cy="27.5" r="2.5" fill="#B2EDE7"/>
<circle cx="79.5" cy="34.5" r="2.5" fill="#02C9AF"/>
<circle cx="71" cy="41" r="2" fill="#B2EDE7"/>
<path fill-rule="evenodd" clip-rule="evenodd" d="M70.9131 37.4619C68.9686 37.4619 67.3867 39.0422 67.3867 40.9863C67.3867 42.9305 68.9686 44.5107 70.9131 44.5107C72.8576 44.5107 74.4368 42.9305 74.4368 40.9863C74.4368 39.0422 72.8549 37.4619 70.9131 37.4619ZM70.9131 42.0496C70.326 42.0496 69.8471 41.5734 69.8471 40.9863C69.8471 40.3992 70.326 39.923 70.9131 39.923C71.5002 39.923 71.9764 40.3992 71.9764 40.9863C71.9764 41.5734 71.4975 42.0496 70.9131 42.0496Z" fill="#25187F"/>
<path fill-rule="evenodd" clip-rule="evenodd" d="M72.2547 23.2959C69.9713 23.2959 68.1133 25.1536 68.1133 27.437C68.1133 29.7204 69.9713 31.5787 72.2547 31.5787C74.5381 31.5787 76.3954 29.7207 76.3954 27.437C76.3954 25.1532 74.5374 23.2959 72.2547 23.2959ZM72.2547 29.1176C71.3278 29.1176 70.5737 28.3633 70.5737 27.437C70.5737 26.5106 71.3278 25.7567 72.2547 25.7567C73.1816 25.7567 73.9348 26.5109 73.9348 27.437C73.9348 28.363 73.1807 29.1176 72.2547 29.1176Z" fill="#25187F"/>
<path fill-rule="evenodd" clip-rule="evenodd" d="M79.4442 31.1709C77.4532 31.1709 75.8349 32.7912 75.8349 34.783C75.8349 36.7748 77.4532 38.3952 79.4442 38.3952C81.4353 38.3952 83.0622 36.7745 83.0622 34.783C83.0622 32.7916 81.4355 31.1709 79.4442 31.1709ZM79.4442 35.9344C78.8088 35.9344 78.2953 35.4174 78.2953 34.783C78.2953 34.1486 78.8088 33.6317 79.4442 33.6317C80.0797 33.6317 80.5965 34.1486 80.5965 34.783C80.5965 35.4174 80.0797 35.9344 79.4442 35.9344Z" fill="#25187F"/>
<path fill-rule="evenodd" clip-rule="evenodd" d="M64.4262 78.6494C63.6247 78.6494 62.9766 79.298 62.9766 80.0996C62.9766 80.9012 63.6247 81.5496 64.4262 81.5496C65.2278 81.5496 65.8768 80.901 65.8768 80.0996C65.8768 79.2982 65.2276 78.6494 64.4262 78.6494Z" fill="#25187F"/>
<path fill-rule="evenodd" clip-rule="evenodd" d="M80.5121 78.957C79.6393 78.957 78.9277 79.6656 78.9277 80.5391C78.9277 81.4125 79.6395 82.1211 80.5121 82.1211C81.3846 82.1211 82.0965 81.4127 82.0965 80.5391C82.0965 79.6654 81.3848 78.957 80.5121 78.957Z" fill="#25187F"/>
<path fill-rule="evenodd" clip-rule="evenodd" d="M70.9442 74.0332C70.0707 74.0332 69.3623 74.7416 69.3623 75.6152C69.3623 76.4889 70.0707 77.1973 70.9442 77.1973C71.8176 77.1973 72.526 76.4887 72.526 75.6152C72.526 74.7418 71.8178 74.0332 70.9442 74.0332Z" fill="#25187F"/>
</svg>
