<svg width="90" height="90" viewBox="0 0 90 90" fill="none" xmlns="http://www.w3.org/2000/svg">
<g clip-path="url(#clip0_8009_2067)">
<g clip-path="url(#clip1_8009_2067)">
<path d="M23.5 34L21 36L20.5 37.5L22 39C22.6667 39.3333 24.2 40 25 40C25.8 40 26.6667 39.3333 27 39C28 38.6667 30.1 37.9 30.5 37.5C31 37 33.5 37.5 34 37.5H37.5L39.5 38.5L44 41L49.5 43.5L52 45L56.5 44L61 42C61 42 56.5 41.5 57.75 33.5C59 25.5 54.5 25 54.5 25L50.5 27L45 28L41.5 27.5L37.5 27L35.5 27.5L32.5 29L29 30.5L23.5 34Z" fill="#02C9AF"/>
<path fill-rule="evenodd" clip-rule="evenodd" d="M68.8616 15.1682H41.8862V10.3393C41.8862 9.87504 42.0514 9.52031 42.4056 9.22289C42.7607 8.92441 43.1388 8.82228 43.5964 8.90139L49.3392 9.90527C49.7468 9.97717 50.1664 9.86449 50.4851 9.5973C50.8029 9.33012 50.9859 8.93654 50.9859 8.51977V7.72559C50.9859 5.30648 52.9546 3.33932 55.3736 3.33932C57.7925 3.33932 59.7595 5.30648 59.7595 7.72559V8.51977C59.7595 8.93654 59.9418 9.33029 60.2603 9.5973C60.5781 9.86449 60.9986 9.97717 61.4062 9.90527L67.149 8.90139C67.6065 8.82228 67.9838 8.92424 68.3397 9.22289C68.6939 9.52014 68.8618 9.87504 68.8618 10.3393V15.1682H68.8616ZM83.0312 8.93285H71.4398C71.194 8.21742 70.7558 7.57951 70.1499 7.06975C69.1668 6.2434 67.9294 5.91135 66.6657 6.13125L62.5189 6.85723C62.0884 3.29537 59.0476 0.527344 55.3736 0.527344C51.6996 0.527344 48.657 3.29537 48.2265 6.85723L44.0812 6.13125C42.8159 5.91135 41.5802 6.2434 40.5954 7.06975C39.9895 7.57969 39.5513 8.2176 39.3056 8.93285H27.7142C24.2234 8.93285 21.3841 11.7737 21.3841 15.2647V23.1026C21.3841 23.8795 22.0138 24.5088 22.7911 24.5088C23.5684 24.5088 24.1972 23.8795 24.1972 23.1026V15.2647C24.1972 13.324 25.776 11.7455 27.7144 11.7455H39.0735V13.8865H27.7448C26.9677 13.8865 26.338 14.5174 26.338 15.2928V22.9356C26.338 23.7125 26.9677 24.342 27.7448 24.342C28.5219 24.342 29.1509 23.7125 29.1509 22.9356V16.6987H39.0786C39.1438 17.4178 39.7448 17.9803 40.4796 17.9803H70.2679C71.001 17.9803 71.6019 17.4178 71.6671 16.6987H81.5948V81.7061H29.1505V62.5881C29.1505 61.8112 28.5209 61.1817 27.7444 61.1817C26.968 61.1817 26.3377 61.811 26.3377 62.5881V83.1125C26.3377 83.8876 26.9673 84.5186 27.7444 84.5186H83.0014C83.7777 84.5186 84.4066 83.8876 84.4066 83.1125V15.293C84.4066 14.5176 83.7779 13.8867 83.0014 13.8867H71.6736V11.7457H83.031C84.9718 11.7457 86.5482 13.3242 86.5482 15.2648V83.1426C86.5482 85.0816 84.9718 86.6602 83.031 86.6602H27.714C25.7759 86.6602 24.1968 85.0816 24.1968 83.1426V59.9658C24.1968 59.1889 23.568 58.5599 22.7907 58.5599C22.0134 58.5599 21.3838 59.1889 21.3838 59.9658V83.1426C21.3838 86.632 24.223 89.4725 27.7138 89.4725H83.031C86.5218 89.4725 89.3602 86.632 89.3602 83.1426V15.2647C89.3602 11.7737 86.5218 8.93285 83.031 8.93285H83.0312Z" fill="#9087D3"/>
<path fill-rule="evenodd" clip-rule="evenodd" d="M55.3735 5.52637C54.3362 5.52637 53.4912 6.37188 53.4912 7.40916C53.4912 8.44645 54.3362 9.2916 55.3735 9.2916C56.4108 9.2916 57.2557 8.44609 57.2557 7.40916C57.2557 6.37223 56.409 5.52637 55.3735 5.52637Z" fill="#9087D3"/>
<path fill-rule="evenodd" clip-rule="evenodd" d="M31.7182 61.4303C32.5842 61.9209 33.4742 62.1669 34.3201 62.1669C35.032 62.1669 35.7118 61.9928 36.3201 61.6411C37.3201 61.0647 38.0092 60.0749 38.2295 58.9553C38.5752 59.0467 38.9321 59.0944 39.2922 59.0944C39.6575 59.0944 40.027 59.0467 40.3905 58.9483C41.4788 58.6567 42.3863 57.962 42.9466 56.9919C43.2686 56.433 43.4474 55.8301 43.4948 55.227C43.6219 55.2376 43.7483 55.2446 43.8771 55.2446C45.3934 55.2446 46.8705 54.459 47.6824 53.0528C48.041 52.4323 48.2291 51.759 48.2622 51.0875C48.38 51.0981 48.4995 51.1035 48.619 51.1035C49.002 51.1035 49.3877 51.0541 49.7674 50.9522C50.9014 50.6483 51.8479 49.924 52.4319 48.9115C52.7905 48.2909 52.9852 47.5844 53.0107 46.8672L62.0875 43.2952C62.8097 43.0104 63.1672 42.1949 62.8824 41.4723C62.5968 40.7498 61.7799 40.3948 61.0585 40.6778L52.1698 44.176C51.8994 43.8032 51.518 43.4077 50.9442 42.9946C50.9061 42.9684 50.8671 42.942 50.8265 42.919L41.869 37.7475L41.6461 37.6194C39.6714 36.4766 37.6288 35.2953 34.9042 35.2953H34.8499C32.3972 35.3096 30.3344 36.3182 28.5147 37.2063C25.7442 38.5596 24.2102 39.1907 22.2778 37.5928C21.9651 37.3327 21.7591 36.9424 21.7786 36.6453C21.7837 36.5645 21.7997 36.35 22.1845 36.111L31.7614 30.1397C35.0065 28.1166 37.9296 27.5785 40.7018 28.4907C44.2452 29.6596 48.7964 29.2889 51.7687 27.5924L58.8743 23.5389C59.5472 23.1522 59.7829 22.2946 59.3981 21.6194C59.0124 20.9444 58.153 20.7106 57.4786 21.0956L50.3747 25.1508C48.1161 26.4393 44.3354 26.7276 41.5827 25.8206C38.4833 24.7993 35.2018 25.1579 31.8075 26.8842C28.4165 25.1596 25.1332 24.7993 22.0356 25.8206C19.2829 26.7276 15.5022 26.4393 13.2427 25.1508L6.13972 21.0956C5.46507 20.7106 4.60568 20.9442 4.22001 21.6194C3.83523 22.2944 4.07095 23.1522 4.74542 23.5389L11.8493 27.5924C14.8216 29.2889 19.3727 29.6579 22.9161 28.4907C24.8001 27.8703 26.752 27.9211 28.8292 28.6526L20.6956 33.7237C19.6608 34.3706 19.0489 35.3409 18.9735 36.4573C18.8921 37.6543 19.4727 38.9201 20.4854 39.7583C23.9042 42.5901 27.0078 41.0733 29.7487 39.7338C31.3742 38.9393 33.0548 38.1182 34.8659 38.108H34.904C36.8728 38.108 38.4339 39.0098 40.2374 40.0536L49.355 45.3166C49.8831 45.7067 49.9933 45.9354 50.1618 46.3712C50.2483 46.7598 50.188 47.1694 49.9949 47.5049C49.7881 47.8672 49.4466 48.1254 49.0388 48.2346C48.6311 48.3452 48.2056 48.2905 47.8456 48.0817L46.0818 47.0637C46.08 47.0621 46.0784 47.0621 46.0767 47.0604C46.0749 47.0604 46.0749 47.0585 46.0733 47.0585L40.0179 43.5622C39.3466 43.1739 38.4847 43.4043 38.0982 44.0772C37.7092 44.7506 37.9396 45.61 38.6118 45.9987L44.6706 49.4965C45.4087 49.9237 45.6724 50.9082 45.2452 51.6465C45.0375 52.0083 44.6968 52.2669 44.2892 52.3758C43.8807 52.4848 43.456 52.4321 43.0958 52.2229L41.4093 51.2493C41.4093 51.2493 41.4085 51.2473 41.406 51.2473C41.406 51.2473 41.4043 51.2473 41.4043 51.2456L35.17 47.6473C34.498 47.259 33.6368 47.4891 33.2478 48.1624C32.8613 48.8337 33.0919 49.6936 33.763 50.0819L40.0015 53.6838C40.6542 54.0616 40.8871 54.9336 40.51 55.5854C40.3253 55.9057 40.0244 56.134 39.6624 56.2327C39.3023 56.3293 38.9259 56.2801 38.6056 56.0954L36.2208 54.7192L36.2191 54.7174C36.2191 54.7174 36.2173 54.7174 36.2173 54.7155L30.7085 51.5356C30.0347 51.1473 29.1753 51.3774 28.7863 52.0506C28.3982 52.7237 28.6304 53.5835 29.3015 53.9718L34.8112 57.1516C34.8112 57.1516 34.8121 57.1516 34.8121 57.1536C35.3714 57.4751 35.4892 57.8936 35.4892 58.1889C35.4892 58.6038 35.2621 59.003 34.9128 59.2049C34.4535 59.4721 33.7999 59.386 33.0703 58.9659C33.0372 58.9467 33.0033 58.9288 32.9685 58.9112L29.9064 57.4612C27.6494 56.3942 21.8305 53.508 16.5437 49.7882C15.1385 48.8003 13.9613 47.9372 12.9222 47.1762C9.81601 44.8999 7.57111 43.2528 2.68843 40.7374C1.99937 40.3805 1.15017 40.6512 0.795089 41.3419C0.438254 42.0329 0.708605 42.88 1.39943 43.2368C6.08611 45.6522 8.14398 47.1602 11.2593 49.4456C12.3086 50.2136 13.4984 51.0856 14.9256 52.0893C20.3903 55.9337 26.3815 58.9042 28.7019 60.003L31.7166 61.4302L31.7182 61.4303Z" fill="#25187F"/>
<path fill-rule="evenodd" clip-rule="evenodd" d="M75.8611 53.9941H55.0301C54.2538 53.9941 53.6242 54.625 53.6242 55.4004C53.6242 56.1758 54.2538 56.8068 55.0301 56.8068H75.8611C76.6357 56.8068 77.2662 56.1775 77.2662 55.4004C77.2662 54.6233 76.6357 53.9941 75.8611 53.9941ZM34.8864 70.551C34.1093 70.551 33.4795 71.1805 33.4795 71.9572C33.4795 72.734 34.1091 73.3633 34.8864 73.3633H43.0072C43.7827 73.3633 44.4133 72.7344 44.4133 71.9572C44.4133 71.1801 43.7827 70.551 43.0072 70.551H34.8864ZM75.8611 60.0057H46.382C45.6049 60.0057 44.9759 60.6371 44.9759 61.4121C44.9759 62.1871 45.6047 62.8185 46.382 62.8185H75.8611C76.6357 62.8185 77.2662 62.1891 77.2662 61.4121C77.2662 60.6352 76.6357 60.0057 75.8611 60.0057Z" fill="#9087D3"/>
<path d="M69.4165 76.1711C68.3191 77.1977 67.1071 77.4754 66.1732 76.911C65.2646 76.3645 64.9538 75.2817 65.2419 73.6873C65.1621 73.742 65.08 73.7998 64.9935 73.865C64.929 73.916 64.8376 73.9862 64.7265 74.0742C62.0864 76.1414 59.589 77.8815 58.0312 76.5053C56.7988 75.4172 57.4421 73.4801 58.3193 71.55C59.3075 69.3756 59.0312 67.8814 58.671 67.5984C58.4515 67.426 57.6074 67.5403 56.2785 68.5828C54.341 70.1017 52.3232 72.9125 51.6816 74.9795C51.4062 75.8744 51.4993 76.2855 51.5417 76.3508C51.5417 76.3486 51.59 76.3805 51.7307 76.4033C52.4976 76.5281 53.0154 77.2522 52.8908 78.0168C52.7788 78.7078 52.1805 79.1965 51.5042 79.1965C51.4288 79.1965 51.3525 79.1912 51.2754 79.1789C50.0873 78.9834 49.4634 78.3387 49.1507 77.8305C48.5778 76.9041 48.5244 75.6666 48.9957 74.148C49.8076 71.5233 52.1407 68.2522 54.5435 66.3694C57.642 63.9401 59.5482 64.71 60.4091 65.3868C62.0847 66.7035 62.273 69.6479 60.8804 72.7135C60.7117 73.0826 60.5828 73.3938 60.4846 73.6537C61.0406 73.3147 61.8414 72.7608 62.9931 71.859L63.0105 71.8454C63.1257 71.7547 63.2222 71.6788 63.2923 71.6252C64.245 70.9012 66.0468 69.8254 67.4088 70.743C67.8818 71.0613 68.6004 71.8522 68.1513 73.5766C69.7115 72.4076 72.7863 70.7447 75.861 70.7447C76.6357 70.7447 77.2662 71.374 77.2662 72.151C77.2662 72.9279 76.6357 73.5574 75.861 73.5574C73.3134 73.5574 70.3624 75.2885 69.4165 76.1711Z" fill="#B2EDE7"/>
<path d="M61.5436 47.9824H75.8615C76.6362 47.9824 77.2667 48.6117 77.2667 49.3887C77.2667 50.1656 76.6362 50.7951 75.8615 50.7951H61.5436C60.7665 50.7951 60.1377 50.164 60.1377 49.3887C60.1377 48.6133 60.7665 47.9824 61.5436 47.9824Z" fill="#B2EDE7"/>
</g>
</g>
<defs>
<clipPath id="clip0_8009_2067">
<rect width="90" height="90" fill="white"/>
</clipPath>
<clipPath id="clip1_8009_2067">
<rect width="90" height="90" fill="white"/>
</clipPath>
</defs>
</svg>
