<svg width="90" height="90" viewBox="0 0 90 90" fill="none" xmlns="http://www.w3.org/2000/svg">
<g clip-path="url(#clip0_8009_2078)">
<path d="M55.5332 29.5312H66.0453V31.9925H55.5332V29.5312Z" fill="#9087D3"/>
<path fill-rule="evenodd" clip-rule="evenodd" d="M77.6429 29.5311H73.4676V31.9924H77.6429C82.5927 31.9924 86.6197 36.0195 86.6197 40.9692V84.874C84.3609 83.0269 81.3547 82.0934 77.6429 82.0934H10.5778C6.60916 82.0934 3.38023 78.8644 3.38023 74.8965C3.38023 70.9286 6.60916 67.6981 10.5778 67.6981C11.443 67.6981 12.2885 67.8516 13.0943 68.1557C13.4722 68.298 13.8958 68.2455 14.227 68.015C14.5599 67.7864 14.7582 67.4067 14.7582 67.0043V31.9924H29.5186V29.5311H14.7582V22.869C14.7582 22.3555 14.4406 21.8988 13.9602 21.7176C12.8773 21.31 11.7402 21.1025 10.5778 21.1025C5.25178 21.1025 0.918945 25.4354 0.918945 30.7614V74.8965C0.918945 80.2208 5.25195 84.5538 10.5778 84.5538H77.6427C81.9545 84.5538 84.9564 85.9256 86.8229 88.7444C87.0551 89.096 87.4439 89.2969 87.8498 89.2969C87.9676 89.2969 88.0871 89.2791 88.2031 89.2443C88.7233 89.0875 89.0801 88.6097 89.0801 88.0666V40.9692C89.0801 34.6621 83.949 29.5311 77.6427 29.5311H77.6429ZM3.38023 30.7614C3.38023 26.7928 6.60916 23.5637 10.5778 23.5637C11.1615 23.5637 11.7369 23.6333 12.2978 23.773V65.3919C11.7335 65.2885 11.1582 65.2377 10.5778 65.2377C7.72168 65.2377 5.15018 66.484 3.38023 68.4615V30.7614Z" fill="#9087D3"/>
<rect x="68" y="37" width="4" height="16" fill="#02C9AF"/>
<rect x="68" y="14" width="4" height="6" fill="#02C9AF"/>
<path fill-rule="evenodd" clip-rule="evenodd" d="M73.723 18.7239V15.749C73.723 14.2215 72.48 12.9785 70.9525 12.9785H68.5607C67.0347 12.9785 65.7918 14.2215 65.7918 15.749V18.7232C65.2036 19.1126 64.8148 19.7793 64.8148 20.5354V33.8469C64.8148 33.9596 64.8283 34.0705 64.8598 34.1798L65.6416 36.9818V53.44C65.6416 53.5893 65.6705 53.7366 65.723 53.8772L68.5266 61.2663V63.2623C68.5266 63.9428 69.0764 64.4926 69.7577 64.4926C70.4391 64.4926 70.988 63.9428 70.988 63.2623V61.2619L73.79 53.8772C73.8425 53.7366 73.8705 53.5891 73.8705 53.44V36.9818L74.655 34.1798C74.6847 34.0705 74.6982 33.9596 74.6982 33.8469V20.5354C74.6982 19.7798 74.3101 19.1133 73.723 18.7239ZM72.2376 33.6782L71.7061 35.5822H67.8073L67.2752 33.6782V20.8233H72.2376V33.6782ZM69.7577 57.5721L68.6558 54.6701H70.8579L69.7577 57.5721ZM68.1029 52.2094V38.0432H71.4099V52.2094H68.1029ZM68.5605 15.4398H70.9523C71.1192 15.4398 71.2615 15.582 71.2615 15.749V18.3629H68.252V15.749C68.252 15.582 68.3928 15.4398 68.5605 15.4398Z" fill="#25187F"/>
<path d="M25.0001 55.5L24.5001 60L25.0001 60.5L27.5001 61L29.0001 64.5V66.5C29.0001 66.9 28.6668 67.6667 28.5001 68L29.0001 69.5L30.5001 71H33.5001L36.0001 70.5L38.5001 72L39.5001 74.5L42.0001 75L45.0001 74.5L46.0001 72L49.0001 70.5H50.5001L53.5001 72L55.0001 70.5L56.5001 68.5C56.5001 68.1667 56.4001 67.4 56.0001 67C55.5001 66.5 56.0001 66 56.0001 65.5V63.5V62C56.6668 61.5 59.1001 60.4 59.5001 60C60.0001 59.5 59.0001 59.5 59.5001 58.5C60.0001 57.5 61.0001 56.5 60.0001 55C59.5001 54.5 57.5001 54.5 56.5001 54C55.5001 53.5 56.5001 53 56.0001 52C55.5001 51 56.0001 51.5 56.0001 50.5V48V46.5C56.0001 45.5 54.5001 45 53.5001 44C52.7001 43.2 52.5001 43.6667 52.5001 44L50.0001 45L48.5001 47.5L49.0001 50.5L51.5001 53.5V59L50.0001 63.5L46.0001 66L41.0001 66.5L35.5001 64.5L34.0001 62L32.5001 59.5V56L33.5001 53L37.0001 49.5V48.5L35.0001 46L33.5001 44.5L32.5001 43.5L31.5001 44L30.0001 45L29.0001 46V47.5L30.0001 49.5L29.0001 52.5L27.0001 54.5L25.0001 55.5Z" fill="#B2EDE7"/>
<path fill-rule="evenodd" clip-rule="evenodd" d="M44.8123 76.7796H40.2404C39.2482 76.7796 38.3908 76.0729 38.1976 75.1012L37.8392 73.2796L34.7662 72.007L33.2249 73.0405C32.3996 73.5928 31.294 73.4854 30.5933 72.7846L27.36 69.5515C26.6593 68.8499 26.5517 67.7451 27.104 66.9207L28.1378 65.3786L26.8645 62.3056L25.0437 61.9472C24.072 61.754 23.3654 60.8956 23.3654 59.9044V55.3325C23.3654 54.3413 24.072 53.4821 25.0437 53.2898L26.8645 52.9313L28.1378 49.8592L27.104 48.3173C26.5516 47.4946 26.6593 46.3872 27.36 45.6856L30.5933 42.4532C31.294 41.7517 32.3996 41.6441 33.2249 42.1966L35.3127 43.5979L33.9435 45.6415L32.1135 44.4147L29.3226 47.2065L30.5494 49.0366C30.7782 49.3772 30.8222 49.8118 30.6638 50.1914L28.8863 54.4821C28.7286 54.8634 28.3906 55.1397 27.9865 55.2184L25.8259 55.6454V59.592L27.9865 60.019C28.3906 60.0986 28.7286 60.3739 28.8863 60.7552L30.6638 65.0467C30.8223 65.4262 30.7782 65.8601 30.5494 66.2016L29.3226 68.0308L32.1135 70.8225L33.9435 69.5956C34.2849 69.3669 34.7187 69.3228 35.0984 69.4813L39.389 71.2588C39.7712 71.4172 40.0465 71.7545 40.1261 72.1587L40.5531 74.3192H44.4997L44.926 72.1587C45.0056 71.7545 45.2819 71.4174 45.663 71.2588L49.9537 69.4813C50.3341 69.3229 50.7679 69.3669 51.1084 69.5956L52.9384 70.8225L55.7302 68.0308L54.5034 66.2016C54.2747 65.8601 54.2306 65.4264 54.3883 65.0467L56.1658 60.7552C56.3242 60.3739 56.6615 60.0985 57.0656 60.019L59.2261 59.592V55.6454L57.0656 55.2184C56.6615 55.1397 56.3242 54.8634 56.1658 54.4821L54.3883 50.1914C54.2306 49.8119 54.2747 49.3772 54.5034 49.0366L55.7302 47.2065L52.9384 44.4147L51.1084 45.6415L49.7392 43.5979L51.8277 42.1966C52.6503 41.6441 53.7578 41.7517 54.4593 42.4532L57.6917 45.6856C58.3933 46.3872 58.5 47.4928 57.9484 48.3173L56.9148 49.8592L58.1874 52.9313L60.0082 53.2915C60.9808 53.4822 61.6874 54.3413 61.6874 55.3325V59.9044C61.6874 60.8956 60.9808 61.754 60.0082 61.9472L58.1874 62.3056L56.9148 65.3786L57.9484 66.9207C58.5 67.7451 58.3933 68.8499 57.6917 69.5515L54.4593 72.7846C53.7578 73.4853 52.6503 73.5928 51.8277 73.0405L50.2856 72.007L47.2134 73.2796L46.855 75.1012C46.6627 76.0731 45.8035 76.7796 44.8123 76.7796Z" fill="#9087D3"/>
<circle cx="42.5001" cy="23.5" r="11.5" fill="#02C9AF"/>
<path fill-rule="evenodd" clip-rule="evenodd" d="M42.5271 68.0455C36.7774 68.0455 32.0997 63.3687 32.0997 57.6198C32.0997 54.368 33.5756 51.3602 36.1513 49.3691L37.6578 51.3145C35.6887 52.8371 34.5601 55.1348 34.5601 57.62C34.5601 62.0113 38.134 65.5851 42.5271 65.5851C46.9202 65.5851 50.4914 62.0113 50.4914 57.62C50.4914 55.1349 49.3629 52.8371 47.3938 51.3145L48.9002 49.3691C51.4742 51.3602 52.9527 54.368 52.9527 57.6198C52.9527 63.3685 48.2749 68.0455 42.5269 68.0455H42.5271Z" fill="#9087D3"/>
<path fill-rule="evenodd" clip-rule="evenodd" d="M53.8177 11.1304C50.8243 8.74695 46.8149 7.43457 42.5252 7.43457C38.2354 7.43457 34.2287 8.74695 31.2353 11.1304C27.8021 13.8645 25.9865 17.7543 25.9865 22.3788C25.9865 28.1233 28.3681 31.4438 30.4668 34.3745C32.1706 36.751 33.6415 38.8022 33.6415 41.8415V45.3813C33.6415 46.5925 34.3804 47.6345 35.431 48.0805V49.4669C35.431 51.0403 36.6789 52.324 38.2363 52.3903V53.1913C38.2363 54.8071 39.5513 56.1221 41.1671 56.1221H43.8861C45.5019 56.1221 46.8169 54.8071 46.8169 53.1913V52.3903C48.374 52.3244 49.6222 51.0404 49.6222 49.4667V48.0805C50.6726 47.6345 51.4116 46.5925 51.4116 45.3812V41.8413C51.4116 38.8022 52.8833 36.7508 54.5864 34.3743C56.6851 31.4435 59.0651 28.1231 59.0651 22.3786C59.0651 17.7542 57.2511 13.8643 53.8179 11.1302L53.8177 11.1304ZM43.7825 41.6957H41.2703V31.0954C41.6821 31.1454 42.1007 31.1684 42.5252 31.1684C42.953 31.1684 43.3716 31.1455 43.7825 31.0954V41.6957ZM48.9509 44.1562V45.3813C48.9509 45.6397 48.739 45.8507 48.4815 45.8507H36.5722C36.3138 45.8507 36.1028 45.6397 36.1028 45.3813V44.1562H48.9509ZM43.8859 53.6608H41.1669C40.9085 53.6608 40.6976 53.4499 40.6976 53.1915V52.3968H44.3552V53.1915C44.3552 53.4499 44.1443 53.6608 43.8859 53.6608ZM46.6921 49.9362H38.3618C38.1034 49.9362 37.8923 49.7268 37.8923 49.4669V48.312H47.1614V49.4669C47.1614 49.727 46.9505 49.9362 46.6921 49.9362ZM52.5857 32.9417C50.8208 35.4029 48.9983 37.9465 48.9526 41.6957H46.2431V30.8794C46.2431 30.7498 46.2431 30.621 46.2456 30.4948C48.4476 29.6493 50.2337 28.0495 51.2285 25.9178C52.396 23.4124 52.3909 21.1731 51.2149 19.9266C50.4482 19.1142 49.3263 18.893 48.2165 19.3344C46.3126 20.0903 44.2927 22.9184 43.8648 28.5942C43.4064 28.6723 42.9548 28.7087 42.5252 28.7087C42.0991 28.7087 41.6466 28.6723 41.1882 28.5942C40.7595 22.9184 38.7413 20.0901 36.8374 19.3344C35.7267 18.893 34.605 19.1142 33.839 19.9266C32.6621 21.1729 32.657 23.4124 33.8245 25.9178C34.8193 28.0495 36.6036 29.6509 38.8083 30.4948C38.81 30.621 38.81 30.7498 38.81 30.8794V41.6957H36.1013C36.0556 37.9465 34.2322 35.4031 32.4673 32.9401C30.4915 30.1838 28.447 27.3328 28.447 22.3788C28.447 13.801 35.7464 9.89498 42.5254 9.89498C49.3044 9.89498 56.6046 13.8008 56.6046 22.3788C56.6046 27.3328 54.5618 30.1838 52.586 32.9417H52.5857ZM46.4319 27.6784C46.9081 23.8852 48.1959 21.9907 49.1245 21.6213C49.2144 21.5865 49.2754 21.5739 49.3195 21.5739C49.3864 21.5739 49.4109 21.6018 49.4253 21.6163C49.7083 21.9161 49.8414 23.0668 48.9983 24.8766C48.3984 26.162 47.4741 27.0711 46.4319 27.6786V27.6784ZM38.6218 27.6784C37.5796 27.0709 36.6544 26.1618 36.0554 24.8765C35.2115 23.0666 35.3445 21.9161 35.6275 21.6161C35.6419 21.6017 35.6665 21.5737 35.7333 21.5737C35.7773 21.5737 35.8393 21.5864 35.9292 21.6212C36.8569 21.9907 38.1456 23.8851 38.6218 27.6782V27.6784Z" fill="#25187F"/>
<path fill-rule="evenodd" clip-rule="evenodd" d="M42.5246 5.66895C41.8468 5.66895 41.2952 5.11734 41.2952 4.43865V1.93412C41.2952 1.25385 41.8468 0.703125 42.5246 0.703125C43.206 0.703125 43.7558 1.25385 43.7558 1.93412V4.43865C43.7558 5.11734 43.206 5.66895 42.5246 5.66895ZM52.4463 8.32693C52.2369 8.32693 52.0244 8.27437 51.8312 8.16258C51.2423 7.82279 51.0416 7.07045 51.3814 6.48158L52.6345 4.31262C52.9743 3.72375 53.7258 3.52125 54.3146 3.86279C54.9044 4.2017 55.1042 4.95404 54.7653 5.54291L53.5113 7.71187C53.2851 8.10756 52.8699 8.32693 52.4463 8.32693ZM32.6057 8.32693C32.1803 8.32693 31.7677 8.10756 31.5406 7.71187L30.2874 5.54291C29.9477 4.95404 30.1486 4.2017 30.7373 3.86279C31.3261 3.52125 32.0785 3.72375 32.4174 4.31262L33.6705 6.48158C34.0103 7.07045 33.8078 7.82279 33.2207 8.16258C33.0258 8.27437 32.8148 8.32693 32.6057 8.32693ZM25.3429 15.5906C25.1335 15.5906 24.921 15.5364 24.7278 15.4253L22.558 14.1713C21.97 13.8324 21.7693 13.0801 22.1082 12.4912C22.448 11.9023 23.2003 11.7025 23.7892 12.0414L25.9583 13.2928C26.5472 13.6343 26.7497 14.3866 26.4081 14.9755C26.181 15.3686 25.7665 15.5906 25.3429 15.5906ZM59.7099 15.5906C59.2845 15.5906 58.8711 15.3686 58.644 14.9755C58.3033 14.3866 58.5049 13.6343 59.0938 13.2928L61.2636 12.0414C61.8525 11.7025 62.6048 11.9023 62.9437 12.4912C63.2826 13.0801 63.0826 13.8324 62.4937 14.1713L60.3248 15.4253C60.1316 15.5363 59.918 15.5906 59.7097 15.5906H59.7099Z" fill="#25187F"/>
</g>
<defs>
<clipPath id="clip0_8009_2078">
<rect width="90" height="90" fill="white"/>
</clipPath>
</defs>
</svg>
