<svg width="66" height="67" viewBox="0 0 66 67" fill="none" xmlns="http://www.w3.org/2000/svg">
<g clip-path="url(#clip0_8009_1565)">
<g clip-path="url(#clip1_8009_1565)">
<path fill-rule="evenodd" clip-rule="evenodd" d="M22.3143 2.26209C22.3143 3.68027 22.3846 4.0431 22.6817 4.15603C23.01 4.28099 23.0374 4.77391 22.9387 8.80167C22.8113 14.0073 23.099 12.8958 19.0788 23.7255C17.7706 27.2501 16.7631 30.347 16.7631 30.347C16.7631 30.347 16.661 30.7171 16.5285 31.0331C15.8836 32.5711 8.39115 53.0833 8.15836 53.9479C7.52718 56.292 8.82887 58.8479 11.1916 59.9037C12.0039 60.2668 13.0139 60.312 21.6926 60.3741L31.2947 60.4427L31.3547 54.7026L31.4147 48.9622L32.2575 48.7648C33.9511 48.3679 35.1371 46.4951 34.8052 44.7415C34.6216 43.7713 33.4246 42.4616 32.5261 42.248C31.2765 41.9513 31.3023 42.0827 31.3023 35.9997V30.3471H33.5318H35.7615L36.0101 29.6002C36.4702 28.2186 37.9623 27.3034 39.3379 27.5591C40.3014 27.7382 41.5685 28.8554 41.753 29.6882L41.899 30.3471H44.0397C45.9881 30.3471 46.1668 30.3121 46.0252 29.9573C44.1593 25.2811 40.2261 14.0765 40.0634 12.9735C39.9459 12.1773 39.8479 9.84698 39.8455 7.7949C39.8417 4.62512 39.8918 4.06404 40.178 4.06404C40.4495 4.06404 40.5151 3.71813 40.5151 2.28637V0.508481L31.4147 0.508258L22.3143 0.507812V2.26209Z" fill="#02C9AF"/>
<path fill-rule="evenodd" clip-rule="evenodd" d="M22.1971 2.28636C22.1971 3.72591 22.2625 4.07293 22.5342 4.07293C22.8204 4.07293 22.8705 4.63401 22.8667 7.80379C22.8642 9.85587 22.7656 12.1862 22.6474 12.9824C22.5196 13.8447 21.2516 17.6265 19.5126 22.3327C17.9067 26.6792 16.6722 30.3141 16.769 30.4101C16.8661 30.5063 20.1748 30.5587 24.1214 30.5262L31.2975 30.4673V24.4677V18.4678L30.5901 18.286C29.4817 18.0014 28.4885 16.7276 28.4896 15.5918C28.491 14.0191 29.1354 13.2762 31.0202 12.6748C31.3887 12.5572 31.413 12.1191 31.3573 6.5843L31.2975 0.620501L26.7473 0.560139L22.1971 0.5V2.28636Z" fill="#271B80"/>
<path fill-rule="evenodd" clip-rule="evenodd" d="M44.8078 31.3108C44.4133 31.481 43.8369 32.0185 43.5268 32.5056L42.9628 33.391L41.098 32.9729C40.0725 32.743 39.0663 32.5524 38.8625 32.5492C38.4474 32.5428 38.4969 32.363 37.0601 39.0979C36.1546 43.3429 36.1312 43.5469 36.5283 43.7754C38.811 45.0898 39.4328 47.0071 38.2167 48.9833C37.7266 49.7798 36.2564 50.5723 35.2535 50.5803C34.5426 50.5861 34.6338 50.3097 33.3789 56.2614C32.9142 58.4648 32.5248 60.6102 32.5131 61.0291L32.4922 61.7911L41.2555 63.6414C46.0754 64.6589 50.553 65.4953 51.2057 65.4999C54.1331 65.5213 56.406 63.2973 56.4179 60.4001C56.4206 59.7344 55.769 54.5724 54.9699 48.9291C53.004 35.047 53.0883 35.6221 53.0096 35.5522C52.9714 35.5181 52.0819 35.3005 51.0327 35.0684L49.1257 34.6468L48.9886 33.8108C48.7796 32.5374 48.3507 31.9231 47.3272 31.432C46.2392 30.9099 45.788 30.8883 44.8078 31.3108Z" fill="#271B80"/>
</g>
</g>
<defs>
<clipPath id="clip0_8009_1565">
<rect width="66" height="66" fill="white" transform="translate(0 0.5)"/>
</clipPath>
<clipPath id="clip1_8009_1565">
<rect width="49.0002" height="65.0001" fill="white" transform="translate(8 0.5)"/>
</clipPath>
</defs>
</svg>
