<svg width="90" height="90" viewBox="0 0 90 90" fill="none" xmlns="http://www.w3.org/2000/svg">
<path d="M50.6419 24.7734C60.9109 24.7734 69.417 32.1673 70.524 41.9275C70.9673 45.8334 70.3485 49.5929 68.4821 53.092C68.0873 53.8313 68.2504 54.1605 68.8703 54.6105C74.7731 58.8932 80.6625 63.1936 86.5395 67.5107C89.2598 69.5079 90.117 72.7432 88.7243 75.5274C87.327 78.3205 84.2186 79.6062 80.9595 78.7849C79.533 78.4258 78.4001 77.6677 77.4293 76.6058C72.6379 71.36 67.8251 66.1319 63.0529 60.8683C62.5118 60.272 62.1596 60.2609 61.4993 60.6809C53.7964 65.5766 43.6028 64.5979 37.0609 58.278C33.552 54.8887 31.5675 50.7456 31.1254 45.881C30.2434 36.1707 37.008 26.9347 47.34 25.0428C48.4943 24.83 49.6688 24.6825 50.6419 24.7734ZM65.9486 44.3049C66.1568 36.1818 59.1784 29.3487 50.9085 29.3288C42.9154 29.3099 35.6771 35.5145 35.6929 44.2695C35.7086 52.8759 42.6139 59.1802 50.8264 59.1869C59.706 59.1946 66.1219 51.9881 65.9486 44.3049Z" fill="#9188D3"/>
<path d="M20.1758 71.1671C14.4349 68.3586 9.64131 64.4516 5.96818 59.2512C-1.09232 49.256 -0.291318 37.0784 8.03368 27.5643C11.5538 23.5409 15.7208 20.3677 20.6202 18.1377C22.5552 19.5143 24.5431 20.8099 26.5579 22.0735C27.9923 22.9724 29.5313 23.7648 30.7272 25.0062C23.8219 26.1168 18.4624 29.6868 14.2932 35.1034C9.77856 40.9699 9.62331 48.0313 14.0243 54.0009C17.7244 59.0195 22.5282 62.5186 28.6842 64.0892C29.1713 64.2133 29.6686 64.2964 30.1613 64.3995C29.9903 64.5525 29.8339 64.7265 29.6461 64.8561C26.5309 67.0208 23.1796 68.8407 20.1758 71.1671Z" fill="#261A7F"/>
<path d="M30.726 25.0051C29.5302 23.7627 27.9912 22.9713 26.5568 22.0724C24.5419 20.8089 22.554 19.5132 20.619 18.1366C15.741 14.0523 11.9498 9.18885 9.6604 3.25691C9.37465 2.51652 9.18453 1.73956 8.96066 0.977013C8.82903 0.528128 8.86053 0.233305 9.48941 0.238846C12.519 0.262122 15.5487 0.254363 18.5783 0.242171C18.9687 0.241063 19.179 0.386258 19.3545 0.722091C22.2064 6.19074 26.37 10.4624 31.6339 13.7187C31.9647 13.9238 32.1964 14.315 32.661 14.2895C32.7837 14.4391 32.8759 14.6398 33.0334 14.7318C35.8099 16.3444 38.2377 18.3816 40.491 20.6338C41.0187 21.2234 41.5474 21.8142 42.1167 22.4504C40.9253 22.9979 39.7643 23.4745 38.6584 24.0519C37.0497 24.8921 35.5962 25.9672 34.3024 27.2274C33.8457 27.673 33.5993 27.6253 33.1842 27.1975C32.4203 26.4116 31.6643 25.6059 30.726 25.0051Z" fill="#01C8B3"/>
<path d="M20.1758 71.1672C23.1795 68.8419 26.5309 67.0208 29.646 64.8562C29.8339 64.7254 29.9903 64.5525 30.1613 64.3996C31.2739 63.7501 32.1345 62.8124 33.03 61.9224C33.4553 61.5001 33.7152 61.4691 34.1618 61.9046C36.2205 63.9108 38.6404 65.3716 41.3674 66.3181C42.0109 66.542 41.9974 66.7515 41.5722 67.166C41.1042 67.6216 40.4607 67.9208 40.2289 68.5925C38.115 70.705 35.8088 72.5781 33.2303 74.121C32.8365 74.356 32.3944 74.5399 32.1368 74.9534C27.1969 77.8606 23.1345 81.6966 20.3209 86.6244C19.3208 88.3756 18.2802 88.912 16.3744 88.7602C14.2043 88.5873 12.0072 88.6826 9.82466 88.7369C8.96516 88.758 8.80204 88.5019 9.01804 87.7272C10.17 83.6063 12.3165 80.0042 14.913 76.6314C16.4622 74.6175 18.3128 72.8863 20.1758 71.1672Z" fill="#01C8B3"/>
<path d="M40.491 20.6337C38.2376 18.3816 35.8099 16.3444 33.0334 14.7317C32.8759 14.6408 32.7836 14.4391 32.661 14.2895C38.1195 11.0298 42.3236 6.61965 45.1328 0.962586C45.4219 0.380697 45.7301 0.222202 46.3421 0.229961C49.0005 0.260995 51.6611 0.283162 54.3184 0.22331C55.215 0.20336 55.3016 0.514809 55.1396 1.24854C54.3409 4.85958 52.4734 7.94746 50.3291 10.9035C47.907 14.2441 44.8976 17.0449 41.8466 19.8036C41.4619 20.1516 40.9466 20.36 40.491 20.6337Z" fill="#261A7F"/>
<path d="M32.1357 74.9522C32.3933 74.5388 32.8354 74.3548 33.2292 74.1198C35.8066 72.577 38.1139 70.7038 40.2278 68.5913C44.9393 72.0993 48.9893 76.2113 52.1011 81.1834C53.4319 83.3092 54.5097 85.537 55.0778 87.9942C55.2173 88.5972 55.1059 88.7368 54.4996 88.7313C51.6398 88.7091 48.7789 88.7003 45.9192 88.7402C45.3004 88.749 45.1317 88.4077 44.9078 87.9854C42.2168 82.9124 38.4064 78.8403 33.5498 75.7114C33.1021 75.4232 32.6082 75.2038 32.1357 74.9522Z" fill="#261A7F"/>
<path d="M31.6744 87.286C28.9181 87.286 26.163 87.2905 23.4068 87.2838C22.3436 87.2816 21.8745 86.8892 21.8588 86.0291C21.8419 85.1746 22.3324 84.6913 23.3483 84.688C28.8934 84.6736 34.4385 84.6747 39.9848 84.6869C40.9815 84.6891 41.6824 85.2943 41.6576 86.0391C41.6306 86.8648 41.0726 87.2816 39.9431 87.2838C37.1858 87.2905 34.4295 87.286 31.6744 87.286Z" fill="#B2ECE6"/>
<path d="M32.2156 4.09375C29.4942 4.09375 26.7739 4.09818 24.0526 4.09153C22.9186 4.08932 22.4551 3.69474 22.4629 2.77702C22.4708 1.94797 22.9782 1.49465 24.0098 1.49243C29.5189 1.48135 35.0281 1.48135 40.5372 1.49354C41.5407 1.49576 42.0841 2.00339 42.0661 2.82135C42.0481 3.63378 41.5103 4.08599 40.4787 4.09043C37.7247 4.10151 34.9707 4.09375 32.2156 4.09375Z" fill="#B2ECE6"/>
<path d="M19.7123 45.4765C17.5636 45.4765 15.4148 45.4954 13.2661 45.4699C11.9678 45.4544 11.2568 44.4136 11.8317 43.4205C12.1748 42.8287 12.7891 42.7156 13.3988 42.7134C17.6626 42.7001 21.9274 42.7145 26.1912 42.699C26.7683 42.6968 26.9483 42.9085 26.9337 43.4604C26.8639 45.9387 27.2397 45.4311 24.9503 45.471C23.2043 45.5009 21.4583 45.4765 19.7123 45.4765Z" fill="#B2ECE6"/>
<path d="M22.4674 54.0408C20.6854 54.0408 18.9045 54.0408 17.1225 54.0397C16.7873 54.0397 16.4543 54.0552 16.1359 53.8989C15.5397 53.6063 15.1493 53.1563 15.2483 52.488C15.3484 51.813 15.84 51.4483 16.5252 51.445C20.1218 51.4306 23.7195 51.4461 27.3162 51.4251C27.9563 51.4217 27.972 51.8861 28.1059 52.2674C28.7303 54.0397 28.7247 54.0419 26.8043 54.0408C25.3587 54.0408 23.913 54.0408 22.4674 54.0408Z" fill="#B2ECE6"/>
<path d="M22.4832 36.5365C20.9048 36.5365 19.3264 36.5243 17.7492 36.5409C16.9032 36.5498 16.2833 36.3026 16.218 35.3683C16.1674 34.6301 16.8143 33.9895 17.7064 33.9452C18.6447 33.8986 19.5863 33.9474 20.5268 33.9219C22.6024 33.8665 24.6859 34.0704 26.7548 33.7556C26.9843 33.7202 27.2284 33.7224 27.4579 33.7556C28.0947 33.8476 28.9553 33.7401 29.0442 34.6057C29.142 35.5612 28.1903 36.5121 27.3184 36.5177C25.7063 36.5276 24.0953 36.5199 22.4832 36.5199C22.4832 36.5254 22.4832 36.531 22.4832 36.5365Z" fill="#B2ECE6"/>
<path d="M32.5047 11.0609C31.5664 11.0609 30.6282 11.0476 29.6899 11.0653C28.7967 11.0819 28.3714 10.5743 28.3568 9.79181C28.3422 9.03702 28.8709 8.50833 29.5954 8.48284C31.5372 8.41634 33.4834 8.41523 35.4241 8.48838C36.1542 8.51609 36.8078 8.94613 36.7932 9.79514C36.7774 10.6851 36.1812 11.0564 35.3206 11.0587C34.3812 11.062 33.4429 11.0598 32.5047 11.0609Z" fill="#B2ECE6"/>
<path d="M28.5311 29.7666C27.6255 29.7677 26.7199 29.7699 25.8142 29.7666C25.0234 29.7644 24.561 29.3975 24.4834 28.5984C24.3979 27.7261 24.8895 27.2229 25.6792 27.1963C27.5884 27.1309 29.502 27.1353 31.4111 27.2007C32.1817 27.2273 32.6272 27.7871 32.5541 28.5607C32.4855 29.2911 32.0906 29.7821 31.2469 29.7699C30.3424 29.7555 29.4367 29.7655 28.5311 29.7666Z" fill="#B2ECE6"/>
<path d="M31.9917 80.4951C31.2537 80.4951 30.5134 80.5383 29.7799 80.484C28.7955 80.4119 28.2938 79.8799 28.3219 79.0542C28.3534 78.1143 29.0273 77.7652 29.7968 77.7574C31.2975 77.7441 32.805 77.8162 34.3002 77.9536C35.0404 78.0212 35.4927 78.5078 35.4162 79.3302C35.3419 80.1282 34.8964 80.5073 34.1033 80.515C33.399 80.5217 32.6948 80.5161 31.9917 80.5161C31.9917 80.5106 31.9917 80.5028 31.9917 80.4951Z" fill="#B2ECE6"/>
<path d="M28.2612 62.0066C27.4894 62.0066 26.7165 62.0188 25.9448 62.0033C25.1989 61.9889 24.7714 61.611 24.6814 60.8673C24.5835 60.0582 25.0032 59.4951 25.7468 59.4541C27.4197 59.361 29.1038 59.3654 30.7778 59.443C31.4764 59.4752 31.941 60.0814 31.8994 60.7531C31.8589 61.3993 31.4269 61.9468 30.6777 61.99C29.8744 62.0377 29.0667 62.0011 28.2612 62.0011C28.2612 62.0033 28.2612 62.0066 28.2612 62.0066Z" fill="#B2ECE6"/>
<path d="M53.4454 38.2533C56.8339 38.2633 59.5181 40.9411 59.4968 44.2883C59.4754 47.5868 56.7011 50.2823 53.3475 50.2635C49.9961 50.2436 47.2714 47.5181 47.2894 44.203C47.3074 40.8857 50.0423 38.2433 53.4454 38.2533ZM50.0839 44.1908C50.0659 46.0927 51.4238 47.4926 53.3216 47.527C55.2634 47.5624 56.7416 46.1626 56.7743 44.2529C56.8046 42.526 55.2206 40.9522 53.4263 40.9278C51.5869 40.9045 50.1008 42.3531 50.0839 44.1908Z" fill="#01C8B3"/>
<path d="M51.6454 55.7089C51.6094 55.9882 51.5937 56.4238 51.4913 56.8394C51.1797 58.0974 49.9084 58.7259 48.7452 58.1196C46.1329 56.7574 43.5398 55.3565 40.9692 53.9189C39.7778 53.2528 39.6113 52.1943 40.3898 51.0383C42.3709 48.0967 46.6808 47.691 49.3876 50.2181C50.9333 51.659 51.6691 53.4623 51.6454 55.7089ZM48.8678 55.1281C48.6676 53.7981 48.3998 53.1807 47.7867 52.467C46.7866 51.3032 44.9764 50.9153 43.7704 51.618C43.5038 51.7731 43.0246 51.9582 43.6141 52.2841C45.3072 53.2218 47.0172 54.1295 48.8678 55.1281Z" fill="#01C8B3"/>
<path d="M45.7043 39.2576C44.1405 39.242 42.5081 38.6313 41.1244 37.4155C39.8745 36.316 40.0264 34.8596 41.49 34.0771C43.9695 32.7515 46.4614 31.4481 48.9634 30.1646C50.3235 29.4663 51.3641 29.8975 51.9266 31.3261C53.451 35.2043 50.4326 39.242 45.7043 39.2576ZM49.4685 32.9477C47.5583 33.9507 45.7279 34.9117 43.7389 35.9558C45.4174 36.7604 46.8608 36.7582 48.2186 35.8538C49.1873 35.2087 49.6755 34.2788 49.4685 32.9477Z" fill="#01C8B3"/>
<path d="M50.0839 44.1908C50.1008 42.3531 51.5869 40.9045 53.4274 40.9289C55.2207 40.9533 56.8058 42.526 56.7754 44.254C56.7417 46.1626 55.2645 47.5635 53.3228 47.5281C51.4238 47.4926 50.0659 46.0927 50.0839 44.1908Z" fill="#B2ECE6"/>
<path d="M48.8678 55.1282C47.0172 54.1295 45.3072 53.2218 43.614 52.2841C43.0245 51.9583 43.5038 51.772 43.7704 51.618C44.9775 50.9153 46.7865 51.3043 47.7867 52.467C48.3998 53.1808 48.6675 53.7981 48.8678 55.1282Z" fill="#B2ECE6"/>
<path d="M49.4685 32.9476C49.6755 34.2788 49.1884 35.2087 48.2186 35.8549C46.8619 36.7593 45.4174 36.7604 43.7389 35.9568C45.7279 34.9116 47.5583 33.9507 49.4685 32.9476Z" fill="#B2ECE6"/>
</svg>
