<svg width="51" height="51" viewBox="0 0 51 51" fill="none" xmlns="http://www.w3.org/2000/svg">
<g clip-path="url(#clip0_9802_30)">
<path d="M47.875 8.81262H24.4375V10.3751H47.875C48.2815 10.3678 48.6743 10.522 48.9672 10.804C49.2602 11.0859 49.4293 11.4725 49.4375 11.879V45.59C49.4293 45.9965 49.2602 46.3831 48.9672 46.665C48.6743 46.947 48.2815 47.1012 47.875 47.0939H4.125C3.7185 47.1012 3.32569 46.947 3.03276 46.665C2.73983 46.3831 2.57071 45.9965 2.5625 45.59V11.879C2.57071 11.4725 2.73983 11.0859 3.03276 10.804C3.32569 10.522 3.7185 10.3678 4.125 10.3751H5.6875V8.81262H4.125C3.30411 8.80533 2.5139 9.12419 1.92795 9.69915C1.34201 10.2741 1.00825 11.0581 1 11.879L1 45.59C1.00825 46.4108 1.34201 47.1949 1.92795 47.7698C2.5139 48.3448 3.30411 48.6637 4.125 48.6564H47.875C48.6959 48.6637 49.4861 48.3448 50.072 47.7698C50.658 47.1949 50.9917 46.4108 51 45.59V11.879C50.9917 11.0581 50.658 10.2741 50.072 9.69915C49.4861 9.12419 48.6959 8.80533 47.875 8.81262Z" fill="#9087D3"/>
<path d="M10.375 44.75H19.75C20.5788 44.75 21.3737 44.4208 21.9597 43.8347C22.5458 43.2487 22.875 42.4538 22.875 41.625V6.46875C22.875 5.63995 22.5458 4.84509 21.9597 4.25904C21.3737 3.67299 20.5788 3.34375 19.75 3.34375H10.375C9.5462 3.34375 8.75134 3.67299 8.16529 4.25904C7.57924 4.84509 7.25 5.63995 7.25 6.46875V41.625C7.25 42.4538 7.57924 43.2487 8.16529 43.8347C8.75134 44.4208 9.5462 44.75 10.375 44.75ZM8.8125 6.46875C8.8125 6.05435 8.97712 5.65692 9.27015 5.3639C9.56317 5.07087 9.9606 4.90625 10.375 4.90625H19.75C20.1644 4.90625 20.5618 5.07087 20.8549 5.3639C21.1479 5.65692 21.3125 6.05435 21.3125 6.46875V41.625C21.3125 42.0394 21.1479 42.4368 20.8549 42.7299C20.5618 43.0229 20.1644 43.1875 19.75 43.1875H10.375C9.9606 43.1875 9.56317 43.0229 9.27015 42.7299C8.97712 42.4368 8.8125 42.0394 8.8125 41.625V6.46875Z" fill="#271B80"/>
<rect x="26" y="22" width="4" height="4" fill="#B2EDE7"/>
<rect x="26" y="31" width="4" height="4" fill="#B2EDE7"/>
<rect x="26" y="40" width="4" height="4" fill="#B2EDE7"/>
<rect x="34" y="22" width="4" height="4" fill="#B2EDE7"/>
<rect x="34" y="31" width="4" height="4" fill="#B2EDE7"/>
<rect x="34" y="40" width="4" height="4" fill="#B2EDE7"/>
<rect x="42" y="22" width="4" height="4" fill="#B2EDE7"/>
<rect x="42" y="31" width="4" height="4" fill="#B2EDE7"/>
<rect x="42" y="40" width="4" height="4" fill="#B2EDE7"/>
<path d="M28.3438 18.9688H43.9688C44.7976 18.9688 45.5924 18.6395 46.1785 18.0535C46.7645 17.4674 47.0938 16.6726 47.0938 15.8438C47.0938 15.0149 46.7645 14.2201 46.1785 13.634C45.5924 13.048 44.7976 12.7188 43.9688 12.7188H28.3438C27.5149 12.7188 26.7201 13.048 26.134 13.634C25.548 14.2201 25.2188 15.0149 25.2188 15.8438C25.2188 16.6726 25.548 17.4674 26.134 18.0535C26.7201 18.6395 27.5149 18.9688 28.3438 18.9688ZM28.3438 14.2812H43.9688C44.3832 14.2812 44.7806 14.4459 45.0736 14.7389C45.3666 15.0319 45.5312 15.4293 45.5312 15.8438C45.5312 16.2582 45.3666 16.6556 45.0736 16.9486C44.7806 17.2416 44.3832 17.4062 43.9688 17.4062H28.3438C27.9293 17.4062 27.5319 17.2416 27.2389 16.9486C26.9459 16.6556 26.7812 16.2582 26.7812 15.8438C26.7812 15.4293 26.9459 15.0319 27.2389 14.7389C27.5319 14.4459 27.9293 14.2812 28.3438 14.2812Z" fill="#9087D3"/>
<path d="M29.125 21.3125H27.5625C26.9409 21.3125 26.3448 21.5594 25.9052 21.999C25.4657 22.4385 25.2188 23.0346 25.2188 23.6562V25.2188C25.2188 25.8404 25.4657 26.4365 25.9052 26.876C26.3448 27.3156 26.9409 27.5625 27.5625 27.5625H29.125C29.7466 27.5625 30.3427 27.3156 30.7823 26.876C31.2218 26.4365 31.4688 25.8404 31.4688 25.2188V23.6562C31.4688 23.0346 31.2218 22.4385 30.7823 21.999C30.3427 21.5594 29.7466 21.3125 29.125 21.3125ZM29.9062 25.2188C29.9062 25.426 29.8239 25.6247 29.6774 25.7712C29.5309 25.9177 29.3322 26 29.125 26H27.5625C27.3553 26 27.1566 25.9177 27.0101 25.7712C26.8636 25.6247 26.7812 25.426 26.7812 25.2188V23.6562C26.7812 23.449 26.8636 23.2503 27.0101 23.1038C27.1566 22.9573 27.3553 22.875 27.5625 22.875H29.125C29.3322 22.875 29.5309 22.9573 29.6774 23.1038C29.8239 23.2503 29.9062 23.449 29.9062 23.6562V25.2188Z" fill="#9087D3"/>
<path d="M36.9375 21.3125H35.375C34.7534 21.3125 34.1573 21.5594 33.7177 21.999C33.2782 22.4385 33.0312 23.0346 33.0312 23.6562V25.2188C33.0312 25.8404 33.2782 26.4365 33.7177 26.876C34.1573 27.3156 34.7534 27.5625 35.375 27.5625H36.9375C37.5591 27.5625 38.1552 27.3156 38.5948 26.876C39.0343 26.4365 39.2812 25.8404 39.2812 25.2188V23.6562C39.2812 23.0346 39.0343 22.4385 38.5948 21.999C38.1552 21.5594 37.5591 21.3125 36.9375 21.3125ZM37.7188 25.2188C37.7188 25.426 37.6364 25.6247 37.4899 25.7712C37.3434 25.9177 37.1447 26 36.9375 26H35.375C35.1678 26 34.9691 25.9177 34.8226 25.7712C34.6761 25.6247 34.5938 25.426 34.5938 25.2188V23.6562C34.5938 23.449 34.6761 23.2503 34.8226 23.1038C34.9691 22.9573 35.1678 22.875 35.375 22.875H36.9375C37.1447 22.875 37.3434 22.9573 37.4899 23.1038C37.6364 23.2503 37.7188 23.449 37.7188 23.6562V25.2188Z" fill="#9087D3"/>
<path d="M44.75 21.3125H43.1875C42.5659 21.3125 41.9698 21.5594 41.5302 21.999C41.0907 22.4385 40.8438 23.0346 40.8438 23.6562V25.2188C40.8438 25.8404 41.0907 26.4365 41.5302 26.876C41.9698 27.3156 42.5659 27.5625 43.1875 27.5625H44.75C45.3716 27.5625 45.9677 27.3156 46.4073 26.876C46.8468 26.4365 47.0938 25.8404 47.0938 25.2188V23.6562C47.0938 23.0346 46.8468 22.4385 46.4073 21.999C45.9677 21.5594 45.3716 21.3125 44.75 21.3125ZM45.5312 25.2188C45.5312 25.426 45.4489 25.6247 45.3024 25.7712C45.1559 25.9177 44.9572 26 44.75 26H43.1875C42.9803 26 42.7816 25.9177 42.6351 25.7712C42.4886 25.6247 42.4062 25.426 42.4062 25.2188V23.6562C42.4062 23.449 42.4886 23.2503 42.6351 23.1038C42.7816 22.9573 42.9803 22.875 43.1875 22.875H44.75C44.9572 22.875 45.1559 22.9573 45.3024 23.1038C45.4489 23.2503 45.5312 23.449 45.5312 23.6562V25.2188Z" fill="#9087D3"/>
<path d="M29.125 29.9062H27.5625C26.9409 29.9062 26.3448 30.1532 25.9052 30.5927C25.4657 31.0323 25.2188 31.6284 25.2188 32.25V33.8125C25.2188 34.4341 25.4657 35.0302 25.9052 35.4698C26.3448 35.9093 26.9409 36.1562 27.5625 36.1562H29.125C29.7466 36.1562 30.3427 35.9093 30.7823 35.4698C31.2218 35.0302 31.4688 34.4341 31.4688 33.8125V32.25C31.4688 31.6284 31.2218 31.0323 30.7823 30.5927C30.3427 30.1532 29.7466 29.9062 29.125 29.9062ZM29.9062 33.8125C29.9062 34.0197 29.8239 34.2184 29.6774 34.3649C29.5309 34.5114 29.3322 34.5938 29.125 34.5938H27.5625C27.3553 34.5938 27.1566 34.5114 27.0101 34.3649C26.8636 34.2184 26.7812 34.0197 26.7812 33.8125V32.25C26.7812 32.0428 26.8636 31.8441 27.0101 31.6976C27.1566 31.5511 27.3553 31.4688 27.5625 31.4688H29.125C29.3322 31.4688 29.5309 31.5511 29.6774 31.6976C29.8239 31.8441 29.9062 32.0428 29.9062 32.25V33.8125Z" fill="#9087D3"/>
<path d="M36.9375 29.9062H35.375C34.7534 29.9062 34.1573 30.1532 33.7177 30.5927C33.2782 31.0323 33.0312 31.6284 33.0312 32.25V33.8125C33.0312 34.4341 33.2782 35.0302 33.7177 35.4698C34.1573 35.9093 34.7534 36.1562 35.375 36.1562H36.9375C37.5591 36.1562 38.1552 35.9093 38.5948 35.4698C39.0343 35.0302 39.2812 34.4341 39.2812 33.8125V32.25C39.2812 31.6284 39.0343 31.0323 38.5948 30.5927C38.1552 30.1532 37.5591 29.9062 36.9375 29.9062ZM37.7188 33.8125C37.7188 34.0197 37.6364 34.2184 37.4899 34.3649C37.3434 34.5114 37.1447 34.5938 36.9375 34.5938H35.375C35.1678 34.5938 34.9691 34.5114 34.8226 34.3649C34.6761 34.2184 34.5938 34.0197 34.5938 33.8125V32.25C34.5938 32.0428 34.6761 31.8441 34.8226 31.6976C34.9691 31.5511 35.1678 31.4688 35.375 31.4688H36.9375C37.1447 31.4688 37.3434 31.5511 37.4899 31.6976C37.6364 31.8441 37.7188 32.0428 37.7188 32.25V33.8125Z" fill="#9087D3"/>
<path d="M44.75 29.9062H43.1875C42.5659 29.9062 41.9698 30.1532 41.5302 30.5927C41.0907 31.0323 40.8438 31.6284 40.8438 32.25V33.8125C40.8438 34.4341 41.0907 35.0302 41.5302 35.4698C41.9698 35.9093 42.5659 36.1562 43.1875 36.1562H44.75C45.3716 36.1562 45.9677 35.9093 46.4073 35.4698C46.8468 35.0302 47.0938 34.4341 47.0938 33.8125V32.25C47.0938 31.6284 46.8468 31.0323 46.4073 30.5927C45.9677 30.1532 45.3716 29.9062 44.75 29.9062ZM45.5312 33.8125C45.5312 34.0197 45.4489 34.2184 45.3024 34.3649C45.1559 34.5114 44.9572 34.5938 44.75 34.5938H43.1875C42.9803 34.5938 42.7816 34.5114 42.6351 34.3649C42.4886 34.2184 42.4062 34.0197 42.4062 33.8125V32.25C42.4062 32.0428 42.4886 31.8441 42.6351 31.6976C42.7816 31.5511 42.9803 31.4688 43.1875 31.4688H44.75C44.9572 31.4688 45.1559 31.5511 45.3024 31.6976C45.4489 31.8441 45.5312 32.0428 45.5312 32.25V33.8125Z" fill="#9087D3"/>
<path d="M29.125 38.5H27.5625C26.9409 38.5 26.3448 38.7469 25.9052 39.1865C25.4657 39.626 25.2188 40.2221 25.2188 40.8438V42.4062C25.2188 43.0279 25.4657 43.624 25.9052 44.0635C26.3448 44.5031 26.9409 44.75 27.5625 44.75H29.125C29.7466 44.75 30.3427 44.5031 30.7823 44.0635C31.2218 43.624 31.4688 43.0279 31.4688 42.4062V40.8438C31.4688 40.2221 31.2218 39.626 30.7823 39.1865C30.3427 38.7469 29.7466 38.5 29.125 38.5ZM29.9062 42.4062C29.9062 42.6135 29.8239 42.8122 29.6774 42.9587C29.5309 43.1052 29.3322 43.1875 29.125 43.1875H27.5625C27.3553 43.1875 27.1566 43.1052 27.0101 42.9587C26.8636 42.8122 26.7812 42.6135 26.7812 42.4062V40.8438C26.7812 40.6365 26.8636 40.4378 27.0101 40.2913C27.1566 40.1448 27.3553 40.0625 27.5625 40.0625H29.125C29.3322 40.0625 29.5309 40.1448 29.6774 40.2913C29.8239 40.4378 29.9062 40.6365 29.9062 40.8438V42.4062Z" fill="#9087D3"/>
<path d="M36.9375 38.5H35.375C34.7534 38.5 34.1573 38.7469 33.7177 39.1865C33.2782 39.626 33.0312 40.2221 33.0312 40.8438V42.4062C33.0312 43.0279 33.2782 43.624 33.7177 44.0635C34.1573 44.5031 34.7534 44.75 35.375 44.75H36.9375C37.5591 44.75 38.1552 44.5031 38.5948 44.0635C39.0343 43.624 39.2812 43.0279 39.2812 42.4062V40.8438C39.2812 40.2221 39.0343 39.626 38.5948 39.1865C38.1552 38.7469 37.5591 38.5 36.9375 38.5ZM37.7188 42.4062C37.7188 42.6135 37.6364 42.8122 37.4899 42.9587C37.3434 43.1052 37.1447 43.1875 36.9375 43.1875H35.375C35.1678 43.1875 34.9691 43.1052 34.8226 42.9587C34.6761 42.8122 34.5938 42.6135 34.5938 42.4062V40.8438C34.5938 40.6365 34.6761 40.4378 34.8226 40.2913C34.9691 40.1448 35.1678 40.0625 35.375 40.0625H36.9375C37.1447 40.0625 37.3434 40.1448 37.4899 40.2913C37.6364 40.4378 37.7188 40.6365 37.7188 40.8438V42.4062Z" fill="#9087D3"/>
<path d="M44.75 38.5H43.1875C42.5659 38.5 41.9698 38.7469 41.5302 39.1865C41.0907 39.626 40.8438 40.2221 40.8438 40.8438V42.4062C40.8438 43.0279 41.0907 43.624 41.5302 44.0635C41.9698 44.5031 42.5659 44.75 43.1875 44.75H44.75C45.3716 44.75 45.9677 44.5031 46.4073 44.0635C46.8468 43.624 47.0938 43.0279 47.0938 42.4062V40.8438C47.0938 40.2221 46.8468 39.626 46.4073 39.1865C45.9677 38.7469 45.3716 38.5 44.75 38.5ZM45.5312 42.4062C45.5312 42.6135 45.4489 42.8122 45.3024 42.9587C45.1559 43.1052 44.9572 43.1875 44.75 43.1875H43.1875C42.9803 43.1875 42.7816 43.1052 42.6351 42.9587C42.4886 42.8122 42.4062 42.6135 42.4062 42.4062V40.8438C42.4062 40.6365 42.4886 40.4378 42.6351 40.2913C42.7816 40.1448 42.9803 40.0625 43.1875 40.0625H44.75C44.9572 40.0625 45.1559 40.1448 45.3024 40.2913C45.4489 40.4378 45.5312 40.6365 45.5312 40.8438V42.4062Z" fill="#9087D3"/>
<path d="M17.4062 7.25H12.7188C12.5115 7.25 12.3128 7.33231 12.1663 7.47882C12.0198 7.62534 11.9375 7.82405 11.9375 8.03125C11.9375 8.23845 12.0198 8.43716 12.1663 8.58368C12.3128 8.73019 12.5115 8.8125 12.7188 8.8125H17.4062C17.6135 8.8125 17.8122 8.73019 17.9587 8.58368C18.1052 8.43716 18.1875 8.23845 18.1875 8.03125C18.1875 7.82405 18.1052 7.62534 17.9587 7.47882C17.8122 7.33231 17.6135 7.25 17.4062 7.25Z" fill="#02C9AF"/>
<path d="M18.75 10H11.25C10.9185 10 10.6005 11.475 10.3661 14.1005C10.1317 16.726 10 20.287 10 24C10 27.713 10.1317 31.274 10.3661 33.8995C10.6005 36.525 10.9185 38 11.25 38H18.75C19.0815 38 19.3995 36.525 19.6339 33.8995C19.8683 31.274 20 27.713 20 24C20 20.287 19.8683 16.726 19.6339 14.1005C19.3995 11.475 19.0815 10 18.75 10Z" fill="#02C9AF"/>
<path d="M17.4062 39.2812H12.7188C12.5115 39.2812 12.3128 39.3636 12.1663 39.5101C12.0198 39.6566 11.9375 39.8553 11.9375 40.0625C11.9375 40.2697 12.0198 40.4684 12.1663 40.6149C12.3128 40.7614 12.5115 40.8438 12.7188 40.8438H17.4062C17.6135 40.8438 17.8122 40.7614 17.9587 40.6149C18.1052 40.4684 18.1875 40.2697 18.1875 40.0625C18.1875 39.8553 18.1052 39.6566 17.9587 39.5101C17.8122 39.3636 17.6135 39.2812 17.4062 39.2812Z" fill="#02C9AF"/>
</g>
<defs>
<clipPath id="clip0_9802_30">
<rect width="50" height="50" fill="white" transform="translate(1 1)"/>
</clipPath>
</defs>
</svg>
