<svg width="51" height="51" viewBox="0 0 51 51" fill="none" xmlns="http://www.w3.org/2000/svg">
<g clip-path="url(#clip0_9802_78)">
<g clip-path="url(#clip1_9802_78)">
<path fill-rule="evenodd" clip-rule="evenodd" d="M38.1861 41.8746L36.7411 29.6256C36.672 29.0434 36.1461 28.6263 35.5617 28.6949C34.9827 28.7634 34.563 29.2915 34.6321 29.8742L36.0559 41.9618L26.5624 48.0021V40.3749C26.5624 39.7884 26.0843 39.3124 25.4999 39.3124C24.9155 39.3124 24.4374 39.7884 24.4374 40.3749V48.0021L14.9439 41.9618L16.3678 29.8742C16.4368 29.2915 16.0171 28.7634 15.4381 28.6949C14.8537 28.6263 14.3278 29.0434 14.2587 29.6256L12.8137 41.8746L3.83552 47.5893L9.42428 26.172L14.9121 22.6774C15.4115 22.3629 15.5549 21.7057 15.2414 21.2106C14.928 20.716 14.2692 20.5699 13.7752 20.885L7.93144 24.6037C7.703 24.7477 7.53838 24.9719 7.47463 25.2317L1.09964 49.6692C0.988073 50.092 1.14745 50.5388 1.49807 50.7959C1.85401 51.0536 2.32682 51.0685 2.69339 50.8336L13.8124 43.7595L24.9314 50.8336C25.2767 51.0552 25.7231 51.0552 26.0684 50.8336L37.1874 43.7595L48.3064 50.8336C48.673 51.0685 49.1458 51.0536 49.5017 50.7959C49.8524 50.5388 50.0117 50.092 49.9002 49.6692L43.5252 25.2317C43.4614 24.9719 43.2968 24.7477 43.0684 24.6037L39.7321 22.4787C39.2381 22.1637 38.5793 22.3098 38.2659 22.8044C37.9471 23.2995 38.0958 23.9566 38.5898 24.2711L41.5755 26.172L47.1643 47.5893L38.1861 41.8746Z" fill="#9087D3"/>
<path d="M25.5 34C25.2851 34 25.0794 33.9087 24.9277 33.7467C24.9277 33.7467 21.3741 29.945 18.5313 25.0178C16.5912 21.6547 15 17.7696 15 14.1946C15 8.01603 19.7049 3 25.5 3C31.2951 3 36 8.01603 36 14.1946C36 17.7696 34.4088 21.6547 32.4687 25.0178C29.6259 29.945 26.0723 33.7467 26.0723 33.7467C25.9206 33.9087 25.7149 34 25.5 34Z" fill="#02C9AF"/>
<circle cx="26" cy="14" r="6" fill="white"/>
<path fill-rule="evenodd" clip-rule="evenodd" d="M25.5048 6.37744C21.3993 6.37744 18.0664 9.71033 18.0664 13.8159C18.0664 17.9214 21.3993 21.2543 25.5048 21.2543C29.6104 21.2543 32.9433 17.9214 32.9433 13.8159C32.9433 9.71033 29.6104 6.37744 25.5048 6.37744ZM25.5048 8.50271C28.4372 8.50271 30.818 10.8835 30.818 13.8159C30.818 16.7483 28.4372 19.129 25.5048 19.129C22.5724 19.129 20.1917 16.7483 20.1917 13.8159C20.1917 10.8835 22.5724 8.50271 25.5048 8.50271Z" fill="#25187F"/>
<path fill-rule="evenodd" clip-rule="evenodd" d="M24.7277 37.9394C24.9272 38.1393 25.1976 38.252 25.4802 38.252C25.7628 38.252 26.0332 38.1393 26.2326 37.9394C26.2326 37.9394 30.9053 33.2495 34.6432 27.171C37.1943 23.0221 39.2865 18.2293 39.2865 13.8189C39.2865 6.19667 33.1001 0.00861359 25.4802 0.00861359C17.8603 0.00861359 11.6738 6.19667 11.6738 13.8189C11.6738 18.2293 13.7661 23.0221 16.3171 27.171C20.055 33.2495 24.7277 37.9394 24.7277 37.9394ZM25.4802 35.6498C24.0484 34.1077 20.8336 30.4605 18.1268 26.0576C15.7841 22.2475 13.7982 17.8693 13.7982 13.8189C13.7982 7.36935 19.0327 2.13333 25.4802 2.13333C31.9276 2.13333 37.1621 7.36935 37.1621 13.8189C37.1621 17.8693 35.1763 22.2475 32.8336 26.0576C30.1268 30.4605 26.912 34.1077 25.4802 35.6498Z" fill="#25187F"/>
</g>
</g>
<defs>
<clipPath id="clip0_9802_78">
<rect width="51" height="51" fill="white"/>
</clipPath>
<clipPath id="clip1_9802_78">
<rect width="51" height="51" fill="white"/>
</clipPath>
</defs>
</svg>
