<svg width="51" height="51" viewBox="0 0 51 51" fill="none" xmlns="http://www.w3.org/2000/svg">
<g clip-path="url(#clip0_9802_62)">
<path d="M11 12C11 10.3431 12.3431 9 14 9H38C39.6569 9 41 10.3431 41 12V26.8014C41 27.8552 40.4471 28.8317 39.5435 29.3739L34.889 32.1666C34.0221 32.6867 32.9516 32.7353 32.0413 32.2958L27.5542 30.1296C26.7302 29.7318 25.7698 29.7318 24.9458 30.1296L20.4102 32.3192C19.5266 32.7458 18.4903 32.7133 17.6352 32.2323L12.5292 29.3602C11.5846 28.8288 11 27.8293 11 26.7455V12Z" fill="#B2EDE7"/>
<path fill-rule="evenodd" clip-rule="evenodd" d="M48.9167 43.3126L28.9167 29.8309C27.1563 28.6449 24.8541 28.6449 23.0937 29.8303L3.08333 43.3131V20.4043C3.08333 19.3647 3.59891 18.3934 4.46349 17.8126C5.57287 17.0626 8.87506 14.8397 8.87506 14.8397C9.34902 14.5184 9.47912 13.8704 9.1562 13.3934C8.83329 12.9168 8.18744 12.7908 7.70827 13.1121C7.70827 13.1121 4.41141 15.335 3.29683 16.085C1.85933 17.0533 1 18.672 1 20.4043V45.7918C1 47.173 1.54684 48.4981 2.52601 49.4746C3.49996 50.4512 4.82812 51.0001 6.20833 51.0001H45.7917C47.1719 51.0001 48.5 50.4512 49.474 49.4746C50.4532 48.4981 51 47.173 51 45.7918C51 38.9736 51 25.6652 51 20.4043C51 18.672 50.1407 17.0533 48.7032 16.085C47.5886 15.335 44.2865 13.11 44.2865 13.11C43.8126 12.7892 43.1615 12.9152 42.8438 13.3918C42.5209 13.8689 42.6458 14.5168 43.1249 14.8381C43.1249 14.8381 46.4271 17.0626 47.5365 17.8126C48.4011 18.3934 48.9167 19.3647 48.9167 20.4043V43.3126ZM48.9167 45.8251L27.7501 31.5585C26.698 30.847 25.3125 30.8465 24.2604 31.5579L3.08333 45.8251C3.09375 46.6418 3.42188 47.423 4.00001 48.0017C4.58334 48.5876 5.38021 48.9168 6.20833 48.9168H45.7917C46.6198 48.9168 47.4167 48.5876 48 48.0017C48.5781 47.423 48.9062 46.6418 48.9167 45.8251ZM32.7656 5.3444L26.5834 1.17773C26.2292 0.940755 25.7708 0.940755 25.4166 1.17773L19.2344 5.3444C18.7604 5.66576 18.6302 6.31368 18.9531 6.79076C19.276 7.26732 19.9219 7.39336 20.401 7.07252L26 3.29804L31.599 7.07252C32.0781 7.39336 32.724 7.26732 33.0469 6.79076C33.3698 6.31368 33.2396 5.66576 32.7656 5.3444Z" fill="#25187F"/>
<path fill-rule="evenodd" clip-rule="evenodd" d="M9.32845 26.5212V10.3753C9.32845 9.54668 9.66179 8.75188 10.2451 8.16542C10.8337 7.57949 11.6253 7.25033 12.4535 7.25033H39.5368C40.3701 7.25033 41.1618 7.57949 41.7503 8.16542C42.3337 8.75188 42.6618 9.54668 42.6618 10.3753V26.5212C42.6618 27.0962 43.1305 27.5628 43.7034 27.5628C44.2816 27.5628 44.7451 27.0962 44.7451 26.5212C44.7451 26.5212 44.7451 16.3191 44.7451 10.3753C44.7451 8.99408 44.1983 7.66907 43.2243 6.69251C42.2452 5.71594 40.9222 5.16699 39.5368 5.16699C32.7243 5.16699 19.2712 5.16699 12.4535 5.16699C11.0732 5.16699 9.75029 5.71594 8.77112 6.69251C7.79716 7.66907 7.24512 8.99408 7.24512 10.3753V26.5212C7.24512 27.0962 7.71387 27.5628 8.28678 27.5628C8.86491 27.5628 9.32845 27.0962 9.32845 26.5212Z" fill="#9087D3"/>
<path d="M36.4167 16.1043H20.7917C20.2188 16.1043 19.75 15.6377 19.75 15.0627C19.75 14.4877 20.2188 14.021 20.7917 14.021H36.4167C36.9896 14.021 37.4583 14.4877 37.4583 15.0627C37.4583 15.6377 36.9896 16.1043 36.4167 16.1043Z" fill="#02C9AF"/>
<path fill-rule="evenodd" clip-rule="evenodd" d="M19.6322 32.9488L2.62649 21.4905C2.14993 21.1696 1.50201 21.2957 1.18066 21.7723C0.859301 22.2493 0.985856 22.8973 1.46242 23.2186L18.4681 34.6769C18.9447 34.9978 19.5926 34.8717 19.914 34.3952C20.2353 33.9181 20.1088 33.2702 19.6322 32.9488ZM49.3791 21.4905L32.3687 32.9488C31.8921 33.2702 31.7655 33.9181 32.0869 34.3946C32.4083 34.8717 33.0562 34.9978 33.5327 34.6769L50.5432 23.2186C51.0197 22.8973 51.1463 22.2493 50.8249 21.7728C50.5041 21.2957 49.8562 21.1696 49.3791 21.4905Z" fill="#25187F"/>
<path d="M36.417 20.7918H15.5837C15.0107 20.7918 14.542 20.3252 14.542 19.7502C14.542 19.1752 15.0107 18.7085 15.5837 18.7085H36.417C36.9899 18.7085 37.4587 19.1752 37.4587 19.7502C37.4587 20.3252 36.9899 20.7918 36.417 20.7918Z" fill="#02C9AF"/>
<path d="M36.417 25.4793H15.5837C15.0107 25.4793 14.542 25.0127 14.542 24.4377C14.542 23.8627 15.0107 23.396 15.5837 23.396H36.417C36.9899 23.396 37.4587 23.8627 37.4587 24.4377C37.4587 25.0127 36.9899 25.4793 36.417 25.4793Z" fill="#02C9AF"/>
<path d="M24.8957 33.7191C25.5657 33.2828 26.4312 33.2875 27.0965 33.731L41.5038 43.3359C43.1503 44.4335 42.3733 47 40.3944 47H11.2366C9.24661 47 8.47765 44.4099 10.1453 43.324L24.8957 33.7191Z" fill="#02C9AF"/>
</g>
<defs>
<clipPath id="clip0_9802_62">
<rect width="50" height="50" fill="white" transform="translate(1 1)"/>
</clipPath>
</defs>
</svg>
