<svg width="51" height="51" viewBox="0 0 51 51" fill="none" xmlns="http://www.w3.org/2000/svg">
<g clip-path="url(#clip0_8009_1588)">
<path d="M15 6C15 4.34315 16.3431 3 18 3H45C46.6569 3 48 4.34315 48 6V20C48 21.6569 46.6569 23 45 23H42C40.6193 23 39.5 21.8807 39.5 20.5C39.5 19.1193 38.3807 18 37 18H18C16.3431 18 15 16.6569 15 15V6Z" fill="#B2EDE7"/>
<path d="M37.4531 14.9414C38.689 14.9414 39.6943 13.9359 39.6943 12.7002C39.6943 11.4644 38.689 10.459 37.4531 10.459C36.2173 10.459 35.2119 11.4644 35.2119 12.7002C35.2119 13.9359 36.2173 14.9414 37.4531 14.9414ZM37.4531 11.9531C37.8651 11.9531 38.2002 12.2882 38.2002 12.7002C38.2002 13.1122 37.8651 13.4472 37.4531 13.4472C37.0411 13.4472 36.7061 13.1122 36.7061 12.7002C36.7061 12.2882 37.0411 11.9531 37.4531 11.9531Z" fill="#9087D3"/>
<path d="M33.7178 12.7002C33.7178 11.4644 32.7124 10.459 31.4766 10.459C30.2407 10.459 29.2354 11.4644 29.2354 12.7002C29.2354 13.9359 30.2407 14.9414 31.4766 14.9414C32.7124 14.9414 33.7178 13.9359 33.7178 12.7002ZM30.7295 12.7002C30.7295 12.2882 31.0646 11.9531 31.4766 11.9531C31.8885 11.9531 32.2236 12.2882 32.2236 12.7002C32.2236 13.1122 31.8885 13.4472 31.4766 13.4472C31.0646 13.4472 30.7295 13.1122 30.7295 12.7002Z" fill="#9087D3"/>
<path d="M27.7412 12.7002C27.7412 11.4644 26.7358 10.459 25.5 10.459C24.2641 10.459 23.2588 11.4644 23.2588 12.7002C23.2588 13.9359 24.2641 14.9414 25.5 14.9414C26.7358 14.9414 27.7412 13.9359 27.7412 12.7002ZM24.7529 12.7002C24.7529 12.2882 25.088 11.9531 25.5 11.9531C25.912 11.9531 26.2471 12.2882 26.2471 12.7002C26.2471 13.1122 25.912 13.4472 25.5 13.4472C25.088 13.4472 24.7529 13.1122 24.7529 12.7002Z" fill="#9087D3"/>
<path d="M47.2646 0H15.6884C13.6287 0 11.9531 1.67563 11.9531 3.73534V20.1826C11.9531 20.5953 12.2876 20.9297 12.7002 20.9297C13.1128 20.9297 13.4472 20.5953 13.4472 20.1826V3.73534C13.4472 2.49959 14.4526 1.49414 15.6884 1.49414H47.2646C48.5004 1.49414 49.5058 2.49959 49.5058 3.73534V28.8263L44.8045 24.125C44.6645 23.985 44.4744 23.9063 44.2763 23.9063H39.0468V23.1592C39.0468 21.0995 37.3712 19.4239 35.3115 19.4239H3.73534C1.67563 19.4238 0 21.0994 0 23.1591V50.0536C0 50.3557 0.181986 50.6283 0.461191 50.7438C0.553628 50.7821 0.650647 50.8007 0.746969 50.8007C0.941406 50.8007 1.13246 50.7248 1.2754 50.5819L7.03301 44.8241H35.3115C37.3712 44.8241 39.0468 43.1485 39.0468 41.0888V25.4003H43.9669L49.7246 31.1582C49.8675 31.3011 50.0586 31.3769 50.253 31.3769C50.3493 31.3769 50.4464 31.3583 50.5388 31.32C50.818 31.2045 51 30.9319 51 30.6298V3.73534C50.9999 1.67563 49.3243 0 47.2646 0ZM37.5527 41.0888C37.5527 42.3245 36.5473 43.33 35.3115 43.33H6.72362C6.5255 43.33 6.33544 43.4087 6.19539 43.5487L1.49414 48.2501V23.1591C1.49414 21.9234 2.49949 20.9179 3.73534 20.9179H35.3115C36.5473 20.9179 37.5527 21.9234 37.5527 23.1591V41.0888Z" fill="#9087D3"/>
<path d="M36 25C36 23.3431 34.6569 22 33 22H6C4.34315 22 3 23.3431 3 25V39C3 40.6569 4.34315 42 6 42H11.5H33C34.6569 42 36 40.6569 36 39V25Z" fill="#00C9B4"/>
<rect x="12" y="31" width="3" height="2" fill="white"/>
<rect x="18" y="31" width="3" height="2" fill="white"/>
<rect x="24" y="31" width="3" height="2" fill="white"/>
<path d="M13.5469 29.8828C12.311 29.8828 11.3057 30.8882 11.3057 32.124C11.3057 33.3597 12.311 34.3652 13.5469 34.3652C14.7827 34.3652 15.7881 33.3597 15.7881 32.124C15.7881 30.8882 14.7827 29.8828 13.5469 29.8828ZM13.5469 32.871C13.1349 32.871 12.7998 32.5359 12.7998 32.124C12.7998 31.712 13.1349 31.3769 13.5469 31.3769C13.9589 31.3769 14.2939 31.712 14.2939 32.124C14.2939 32.5359 13.9589 32.871 13.5469 32.871Z" fill="#25187F"/>
<path d="M19.5234 29.8828C18.2876 29.8828 17.2822 30.8882 17.2822 32.124C17.2822 33.3597 18.2876 34.3652 19.5234 34.3652C20.7593 34.3652 21.7646 33.3597 21.7646 32.124C21.7646 30.8882 20.7593 29.8828 19.5234 29.8828ZM19.5234 32.871C19.1114 32.871 18.7764 32.5359 18.7764 32.124C18.7764 31.712 19.1114 31.3769 19.5234 31.3769C19.9354 31.3769 20.2705 31.712 20.2705 32.124C20.2705 32.5359 19.9354 32.871 19.5234 32.871Z" fill="#25187F"/>
<path d="M25.5 29.8828C24.2641 29.8828 23.2588 30.8882 23.2588 32.124C23.2588 33.3597 24.2641 34.3652 25.5 34.3652C26.7358 34.3652 27.7412 33.3597 27.7412 32.124C27.7412 30.8882 26.7358 29.8828 25.5 29.8828ZM25.5 32.871C25.088 32.871 24.7529 32.5359 24.7529 32.124C24.7529 31.712 25.088 31.3769 25.5 31.3769C25.912 31.3769 26.2471 31.712 26.2471 32.124C26.2471 32.5359 25.912 32.871 25.5 32.871Z" fill="#25187F"/>
<path d="M39.0468 24.1416C39.0429 24.1377 39.0429 24.1377 39.0468 24.1416C39.0429 24.1377 39.0468 22.9058 39.0468 24.1416V23.1592C39.0468 21.0995 37.3712 19.4238 35.3115 19.4238H3.73534C1.67563 19.4237 0 21.0994 0 23.1591V50.0536C0 50.3557 0.181986 50.6282 0.461191 50.7437C0.553628 50.782 0.650647 50.8006 0.746969 50.8006C0.941406 50.8006 1.13246 50.7247 1.2754 50.5819L7.03301 44.8241H35.3115C37.3712 44.8241 39.0468 43.1484 39.0468 41.0887V24.1416C39.0429 24.1377 39.0429 24.1377 39.0468 24.1416C39.0507 24.1454 39.0507 24.1454 39.0468 24.1416ZM37.5527 41.0887C37.5527 42.3245 36.5473 43.3299 35.3115 43.3299H6.72362C6.5255 43.3299 6.33544 43.4086 6.19539 43.5487L1.49414 48.25V23.1591C1.49414 21.9233 2.49949 20.9179 3.73534 20.9179H35.3115C36.5473 20.9179 37.5527 21.9233 37.5527 23.1591V41.0887Z" fill="#25187F"/>
</g>
<defs>
<clipPath id="clip0_8009_1588">
<rect width="51" height="51" fill="white"/>
</clipPath>
</defs>
</svg>
