<svg width="172" height="65" viewBox="0 0 172 65" fill="none" xmlns="http://www.w3.org/2000/svg">
<g clip-path="url(#clip0_8009_1574)">
<path fill-rule="evenodd" clip-rule="evenodd" d="M14.3143 1.76208C14.3143 3.18025 14.3846 3.54309 14.6817 3.65602C15.01 3.78097 15.0374 4.27389 14.9387 8.30166C14.8113 13.5073 15.099 12.3958 11.0788 23.2255C9.77062 26.7501 8.7631 29.847 8.7631 29.847C8.7631 29.847 8.66105 30.217 8.52848 30.5331C7.88358 32.0711 0.391154 52.5832 0.158363 53.4479C-0.472822 55.792 0.828871 58.3479 3.1916 59.4037C4.0039 59.7668 5.01393 59.812 13.6926 59.8741L23.2947 59.9427L23.3547 54.2025L23.4147 48.4622L24.2575 48.2648C25.9511 47.8679 27.1371 45.9951 26.8052 44.2415C26.6216 43.2712 25.4246 41.9616 24.5261 41.7479C23.2765 41.4513 23.3023 41.5827 23.3023 35.4997V29.8471H25.5318H27.7615L28.0101 29.1002C28.4702 27.7186 29.9623 26.8034 31.3379 27.0591C32.3014 27.2381 33.5685 28.3554 33.753 29.1882L33.899 29.8471H36.0397C37.9881 29.8471 38.1668 29.8121 38.0252 29.4573C36.1593 24.7811 32.2261 13.5765 32.0634 12.4735C31.9459 11.6772 31.8479 9.34696 31.8455 7.29488C31.8417 4.1251 31.8918 3.56403 32.178 3.56403C32.4495 3.56403 32.5151 3.21812 32.5151 1.78636V0.00846545L23.4147 0.00824272L14.3143 0.00779724V1.76208Z" fill="#02C9AF"/>
<path fill-rule="evenodd" clip-rule="evenodd" d="M14.1971 1.78636C14.1971 3.22591 14.2625 3.57293 14.5342 3.57293C14.8204 3.57293 14.8705 4.13401 14.8667 7.30379C14.8642 9.35587 14.7656 11.6862 14.6474 12.4824C14.5196 13.3447 13.2516 17.1265 11.5126 21.8327C9.90666 26.1792 8.67216 29.8141 8.769 29.9101C8.86607 30.0063 12.1748 30.0587 16.1214 30.0262L23.2975 29.9673V23.9677V17.9678L22.5901 17.786C21.4817 17.5014 20.4885 16.2276 20.4896 15.0918C20.491 13.5191 21.1354 12.7762 23.0202 12.1748C23.3887 12.0572 23.413 11.6191 23.3573 6.0843L23.2975 0.120501L18.7473 0.0601392L14.1971 0V1.78636Z" fill="#271B80"/>
<path fill-rule="evenodd" clip-rule="evenodd" d="M36.8078 30.8108C36.4133 30.981 35.8369 31.5184 35.5268 32.0056L34.9628 32.8909L33.098 32.4729C32.0725 32.243 31.0663 32.0523 30.8625 32.0492C30.4474 32.0428 30.4969 31.863 29.0601 38.5979C28.1546 42.8429 28.1312 43.0469 28.5283 43.2754C30.811 44.5898 31.4328 46.5071 30.2167 48.4832C29.7266 49.2798 28.2564 50.0723 27.2535 50.0803C26.5426 50.0861 26.6338 49.8096 25.3789 55.7614C24.9142 57.9647 24.5248 60.1101 24.5131 60.5291L24.4922 61.2911L33.2555 63.1414C38.0754 64.1588 42.553 64.9952 43.2057 64.9999C46.1331 65.0213 48.406 62.7973 48.4179 59.9001C48.4206 59.2343 47.769 54.0724 46.9699 48.4291C45.004 34.547 45.0883 35.1221 45.0096 35.0522C44.9714 35.0181 44.0819 34.8005 43.0327 34.5684L41.1257 34.1467L40.9886 33.3108C40.7796 32.0374 40.3507 31.4231 39.3272 30.932C38.2392 30.4099 37.788 30.3883 36.8078 30.8108Z" fill="#271B80"/>
<path fill-rule="evenodd" clip-rule="evenodd" d="M111.376 0.148566C111.294 0.230088 111.227 5.14145 111.227 11.0627V21.0401C111.227 21.4754 111.579 21.8283 112.015 21.8283H118.642H125.269C125.704 21.8283 126.057 21.4754 126.057 21.0401V20.1578V19.2754C126.057 18.8401 125.704 18.4872 125.269 18.4872H120.552H115.835C115.399 18.4872 115.046 18.1344 115.046 17.6991V9.24361V0.788148C115.046 0.352866 114.694 0 114.258 0H113.286C112.318 0 111.459 0.0668213 111.376 0.148566ZM137.634 0.723897C137.411 1.2451 129.95 18.4482 128.602 21.5499C128.51 21.7608 128.963 21.8274 130.471 21.8249L131.921 21.8227C132.246 21.8222 132.538 21.6219 132.655 21.3184L132.997 20.4328C133.292 19.6691 133.768 18.516 134.054 17.8705L134.364 17.1717C134.492 16.8837 134.778 16.6994 135.093 16.703L139.8 16.7568L144.511 16.8108C144.824 16.8144 145.105 17.003 145.227 17.2913L146.065 19.2668L146.907 21.2534C147.027 21.5361 147.3 21.7234 147.606 21.7336L149.051 21.7813C150.122 21.8167 150.999 21.7791 150.999 21.698C150.999 21.5269 142.336 1.53065 141.864 0.612529C141.561 0.02116 141.487 0 139.746 0H138.463C138.148 0 137.863 0.188217 137.739 0.47838L137.634 0.723897ZM153.639 0.12451C153.546 0.219397 153.47 5.14814 153.47 11.0774V21.0595C153.47 21.4987 153.829 21.8532 154.268 21.8476L160.268 21.7719C167.61 21.6791 168.006 21.6231 169.792 20.4302C171.317 19.4109 172.011 17.9965 171.999 15.9313C171.986 13.4687 171.188 12.1708 168.832 10.7789C168.444 10.5495 168.466 10.4894 169.154 9.91561C170.379 8.89369 170.873 7.71207 170.88 5.79118C170.884 4.37858 170.793 3.96584 170.289 3.11833C169.562 1.89527 168.675 1.22372 166.995 0.623888C165.864 0.220288 165.027 0.155025 159.762 0.0596937C156.487 0.000445476 153.732 0.0294014 153.639 0.12451ZM157.29 6.23621V8.59385C157.29 9.03609 157.654 9.39177 158.096 9.3818L161.054 9.31511C165.246 9.22089 165.925 9.03179 166.75 7.72922C167.283 6.88816 167.227 5.46041 166.626 4.55075C165.935 3.50478 164.937 3.2611 160.942 3.16265L158.098 3.0924C157.655 3.08146 157.29 3.4374 157.29 3.8803V6.23621ZM137.793 8.74535C136.771 11.2244 135.936 13.3783 135.939 13.5313C135.943 13.7429 136.86 13.8097 139.764 13.8097C142.668 13.8097 143.584 13.7429 143.587 13.5313C143.592 13.1747 139.913 4.23224 139.764 4.23558C139.702 4.23692 138.815 6.26628 137.793 8.74535ZM157.29 15.5749V17.9209C157.29 18.3565 157.644 18.7095 158.079 18.709L161.391 18.7051C164.929 18.7008 165.621 18.6423 166.429 18.2783C168.599 17.302 168.903 14.6283 167.008 13.1948L166.407 12.74C166.274 12.6391 166.112 12.5832 165.945 12.5805L161.746 12.5123L158.091 12.4529C157.651 12.4458 157.29 12.8007 157.29 13.241V15.5749Z" fill="#02C9AF"/>
<path d="M37.7498 2.02599V0.787427C37.7498 0.360861 38.0888 0.0142787 38.5154 0.0101028C39.5854 -0.000373103 41.9601 -0.0101113 46.7378 0.0213939L54.8253 0.021355C55.2606 0.0213529 55.6134 0.374219 55.6134 0.809503V1.80325V2.80859C55.6134 3.24387 55.2606 3.59674 54.8253 3.59674H49.6511C49.2195 3.59674 48.8682 3.94378 48.863 4.37529L48.7601 12.8288V21.2842C48.7601 21.7195 48.4072 22.0724 47.9719 22.0724H46.9625H45.5036C45.0683 22.0724 44.7155 21.7218 44.7155 21.2865L44.7154 12.5846V4.38358C44.7154 3.9488 44.3634 3.59615 43.9286 3.59543L38.5366 3.58646C38.1018 3.58574 37.7498 3.23308 37.7498 2.79831V2.02599Z" fill="#271B80"/>
<path d="M61.7368 9.25695C59.8237 4.71978 58.1872 0.785787 58.1004 0.514492C57.9449 0.029147 57.9762 0.0213512 60.0679 0.0213512H61.6655C61.9849 0.0213512 62.2727 0.214141 62.3943 0.509517L62.5371 0.856617C65.3066 7.58485 68.9924 16.3645 69.0865 16.4578C69.1532 16.524 69.2467 16.5365 69.2944 16.4855C69.3418 16.4342 70.4659 13.7865 71.7926 10.6014C73.119 7.41624 74.6577 3.73283 75.2119 2.41578L76.0162 0.503871C76.1392 0.211499 76.4255 0.0213512 76.7427 0.0213512H78.2217H79.317C79.7473 0.0213512 80.0381 0.460459 79.8701 0.856617C79.6753 1.3159 78.195 4.84919 76.5805 8.70812C74.966 12.567 73.0559 17.1276 72.3359 18.8427L71.2296 21.4779C71.1067 21.7706 70.8203 21.961 70.5029 21.961H69.0582H67.6132C67.2961 21.961 67.0098 21.7709 66.8868 21.4786L66.1524 19.7336C65.6369 18.5086 63.6499 13.7941 61.7368 9.25695Z" fill="#271B80"/>
<path d="M82.3488 21.2023L82.2947 10.9912L82.2405 0.813697C82.2381 0.376781 82.5917 0.0213512 83.0286 0.0213512H84.2608H85.497C85.9323 0.0213512 86.2851 0.374217 86.2851 0.8095V11.0556V21.2754C86.2851 21.7208 85.9163 22.0777 85.4712 22.0631L84.319 22.0254L83.1112 21.9858C82.6878 21.972 82.3511 21.6259 82.3488 21.2023Z" fill="#271B80"/>
<path d="M89.3144 21.177L89.2604 10.9912L89.2062 0.813697C89.2039 0.376781 89.5574 0.0213512 89.9943 0.0213512H90.869H92.1525C92.3946 0.0213512 92.6234 0.132664 92.7728 0.32323L98.23 7.28416L102.534 12.7742C102.994 13.3611 103.936 13.0401 103.943 12.2944L103.983 7.28416L104.036 0.803087C104.04 0.370321 104.392 0.0213512 104.824 0.0213512H106.064H107.293C107.73 0.0213512 108.084 0.376782 108.081 0.813699L108.027 10.9912L107.973 21.2075C107.971 21.629 107.637 21.9742 107.216 21.9909L106.396 22.0234L105.226 22.0697C104.973 22.0798 104.73 21.9674 104.574 21.7677L99.0931 14.7575L94.7376 9.18718C94.2798 8.60162 93.3402 8.91725 93.3287 9.66047L93.2509 14.6953L93.1505 21.185C93.1438 21.6155 92.793 21.961 92.3624 21.961H91.2285H90.1026C89.6689 21.961 89.3167 21.6107 89.3144 21.177Z" fill="#271B80"/>
</g>
<defs>
<clipPath id="clip0_8009_1574">
<rect width="172" height="65" fill="white"/>
</clipPath>
</defs>
</svg>
